STARTFONT 2.1
FONT -FontForge-ISO106461-Normal-R-Normal--11-80-96-96-C-60-WinRoman-0
SIZE 8 96 96
FONTBOUNDINGBOX 6 10 0 -2
COMMENT "Merged with Greek,Cyrillic,Kana"
COMMENT "A. Hardtung, public domain"
STARTPROPERTIES 33
FOUNDRY "FontForge"
FAMILY_NAME "ISO106461"
WEIGHT_NAME "Normal"
SLANT "R"
SETWIDTH_NAME "Normal"
ADD_STYLE_NAME ""
PIXEL_SIZE 11
POINT_SIZE 80
RESOLUTION_X 96
RESOLUTION_Y 96
SPACING "C"
AVERAGE_WIDTH 60
CHARSET_REGISTRY "WinRoman"
CHARSET_ENCODING "0"
FONTNAME_REGISTRY ""
CHARSET_COLLECTIONS "WinRoman"
FONT_NAME "ISO10646-1"
FACE_NAME "ISO10646-1"
FONT_VERSION "001.000"
FONT_ASCENT 9
FONT_DESCENT 2
UNDERLINE_POSITION -1
UNDERLINE_THICKNESS 1
X_HEIGHT 4
CAP_HEIGHT 6
RAW_ASCENT 800
RAW_DESCENT 200
NORM_SPACE 6
RELATIVE_WEIGHT 40
RELATIVE_SETWIDTH 50
FIGURE_WIDTH 6
AVG_LOWERCASE_WIDTH 60
AVG_UPPERCASE_WIDTH 60
ENDPROPERTIES
CHARS 515
STARTCHAR uni0001
ENCODING 1
SWIDTH 545 0
DWIDTH 6 0
BBX 5 8 0 0
BITMAP
40
F0
C8
88
88
98
78
10
ENDCHAR
STARTCHAR uni0002
ENCODING 2
SWIDTH 545 0
DWIDTH 6 0
BBX 5 8 0 0
BITMAP
C0
F8
88
88
88
88
88
F8
ENDCHAR
STARTCHAR uni0003
ENCODING 3
SWIDTH 545 0
DWIDTH 6 0
BBX 5 5 0 1
BITMAP
20
30
F8
30
20
ENDCHAR
STARTCHAR uni0004
ENCODING 4
SWIDTH 545 0
DWIDTH 6 0
BBX 5 8 0 0
BITMAP
20
70
F8
20
20
20
20
E0
ENDCHAR
STARTCHAR uni0005
ENCODING 5
SWIDTH 545 0
DWIDTH 6 0
BBX 5 9 0 -1
BITMAP
20
70
A8
A8
B8
88
88
70
20
ENDCHAR
STARTCHAR uni0006
ENCODING 6
SWIDTH 545 0
DWIDTH 6 0
BBX 5 9 0 -1
BITMAP
E0
80
C0
B0
A8
28
30
28
28
ENDCHAR
STARTCHAR uni0007
ENCODING 7
SWIDTH 545 0
DWIDTH 6 0
BBX 5 9 0 -1
BITMAP
F8
A8
88
88
88
88
88
A8
F8
ENDCHAR
STARTCHAR uni0008
ENCODING 8
SWIDTH 545 0
DWIDTH 6 0
BBX 5 10 0 -2
BITMAP
20
50
50
50
50
88
A8
A8
88
70
ENDCHAR
STARTCHAR uni0009
ENCODING 9
SWIDTH 545 0
DWIDTH 6 0
BBX 3 3 0 3
BITMAP
40
A0
40
ENDCHAR
STARTCHAR space
ENCODING 32
SWIDTH 545 0
DWIDTH 6 0
BBX 1 1 5 -2
BITMAP
00
ENDCHAR
STARTCHAR exclam
ENCODING 33
SWIDTH 545 0
DWIDTH 6 0
BBX 1 7 2 0
BITMAP
80
80
80
80
80
00
80
ENDCHAR
STARTCHAR quotedbl
ENCODING 34
SWIDTH 545 0
DWIDTH 6 0
BBX 3 2 1 5
BITMAP
A0
A0
ENDCHAR
STARTCHAR numbersign
ENCODING 35
SWIDTH 545 0
DWIDTH 6 0
BBX 5 7 0 0
BITMAP
50
50
F8
50
F8
50
50
ENDCHAR
STARTCHAR dollar
ENCODING 36
SWIDTH 545 0
DWIDTH 6 0
BBX 5 7 0 0
BITMAP
20
78
A0
70
28
F0
20
ENDCHAR
STARTCHAR percent
ENCODING 37
SWIDTH 545 0
DWIDTH 6 0
BBX 5 7 0 0
BITMAP
C0
C8
10
20
40
98
18
ENDCHAR
STARTCHAR ampersand
ENCODING 38
SWIDTH 545 0
DWIDTH 6 0
BBX 5 7 0 0
BITMAP
60
90
A0
40
A8
90
68
ENDCHAR
STARTCHAR quotesingle
ENCODING 39
SWIDTH 545 0
DWIDTH 6 0
BBX 2 3 1 4
BITMAP
C0
40
80
ENDCHAR
STARTCHAR parenleft
ENCODING 40
SWIDTH 545 0
DWIDTH 6 0
BBX 3 7 1 0
BITMAP
20
40
80
80
80
40
20
ENDCHAR
STARTCHAR parenright
ENCODING 41
SWIDTH 545 0
DWIDTH 6 0
BBX 3 7 1 0
BITMAP
80
40
20
20
20
40
80
ENDCHAR
STARTCHAR asterisk
ENCODING 42
SWIDTH 545 0
DWIDTH 6 0
BBX 5 5 0 1
BITMAP
20
A8
70
A8
20
ENDCHAR
STARTCHAR plus
ENCODING 43
SWIDTH 545 0
DWIDTH 6 0
BBX 5 5 0 1
BITMAP
20
20
F8
20
20
ENDCHAR
STARTCHAR comma
ENCODING 44
SWIDTH 545 0
DWIDTH 6 0
BBX 2 3 2 -1
BITMAP
C0
40
80
ENDCHAR
STARTCHAR hyphen
ENCODING 45
SWIDTH 545 0
DWIDTH 6 0
BBX 5 1 0 3
BITMAP
F8
ENDCHAR
STARTCHAR period
ENCODING 46
SWIDTH 545 0
DWIDTH 6 0
BBX 2 2 2 0
BITMAP
C0
C0
ENDCHAR
STARTCHAR slash
ENCODING 47
SWIDTH 545 0
DWIDTH 6 0
BBX 5 5 0 1
BITMAP
08
10
20
40
80
ENDCHAR
STARTCHAR zero
ENCODING 48
SWIDTH 545 0
DWIDTH 6 0
BBX 5 7 0 0
BITMAP
70
88
98
A8
C8
88
70
ENDCHAR
STARTCHAR one
ENCODING 49
SWIDTH 545 0
DWIDTH 6 0
BBX 3 7 1 0
BITMAP
40
C0
40
40
40
40
E0
ENDCHAR
STARTCHAR two
ENCODING 50
SWIDTH 545 0
DWIDTH 6 0
BBX 5 7 0 0
BITMAP
70
88
08
70
80
80
F8
ENDCHAR
STARTCHAR three
ENCODING 51
SWIDTH 545 0
DWIDTH 6 0
BBX 5 7 0 0
BITMAP
F8
10
20
10
08
08
F0
ENDCHAR
STARTCHAR four
ENCODING 52
SWIDTH 545 0
DWIDTH 6 0
BBX 5 7 0 0
BITMAP
10
30
50
90
F8
10
10
ENDCHAR
STARTCHAR five
ENCODING 53
SWIDTH 545 0
DWIDTH 6 0
BBX 5 7 0 0
BITMAP
F8
80
F0
08
08
88
70
ENDCHAR
STARTCHAR six
ENCODING 54
SWIDTH 545 0
DWIDTH 6 0
BBX 5 7 0 0
BITMAP
30
40
80
F0
88
88
70
ENDCHAR
STARTCHAR seven
ENCODING 55
SWIDTH 545 0
DWIDTH 6 0
BBX 5 7 0 0
BITMAP
F8
08
10
20
20
20
20
ENDCHAR
STARTCHAR eight
ENCODING 56
SWIDTH 545 0
DWIDTH 6 0
BBX 5 7 0 0
BITMAP
70
88
88
70
88
88
70
ENDCHAR
STARTCHAR nine
ENCODING 57
SWIDTH 545 0
DWIDTH 6 0
BBX 5 7 0 0
BITMAP
70
88
88
78
08
10
60
ENDCHAR
STARTCHAR colon
ENCODING 58
SWIDTH 545 0
DWIDTH 6 0
BBX 2 5 2 0
BITMAP
C0
C0
00
C0
C0
ENDCHAR
STARTCHAR semicolon
ENCODING 59
SWIDTH 545 0
DWIDTH 6 0
BBX 2 6 2 -1
BITMAP
C0
C0
00
C0
40
80
ENDCHAR
STARTCHAR less
ENCODING 60
SWIDTH 545 0
DWIDTH 6 0
BBX 4 7 0 0
BITMAP
10
20
40
80
40
20
10
ENDCHAR
STARTCHAR equal
ENCODING 61
SWIDTH 545 0
DWIDTH 6 0
BBX 5 3 0 2
BITMAP
F8
00
F8
ENDCHAR
STARTCHAR greater
ENCODING 62
SWIDTH 545 0
DWIDTH 6 0
BBX 4 7 1 0
BITMAP
80
40
20
10
20
40
80
ENDCHAR
STARTCHAR question
ENCODING 63
SWIDTH 545 0
DWIDTH 6 0
BBX 5 7 0 0
BITMAP
70
88
08
10
20
00
20
ENDCHAR
STARTCHAR at
ENCODING 64
SWIDTH 545 0
DWIDTH 6 0
BBX 5 6 0 0
BITMAP
70
88
08
68
A8
70
ENDCHAR
STARTCHAR A
ENCODING 65
SWIDTH 545 0
DWIDTH 6 0
BBX 5 7 0 0
BITMAP
70
88
88
F8
88
88
88
ENDCHAR
STARTCHAR B
ENCODING 66
SWIDTH 545 0
DWIDTH 6 0
BBX 5 7 0 0
BITMAP
F0
88
88
F0
88
88
F0
ENDCHAR
STARTCHAR C
ENCODING 67
SWIDTH 545 0
DWIDTH 6 0
BBX 5 7 0 0
BITMAP
70
88
80
80
80
88
70
ENDCHAR
STARTCHAR D
ENCODING 68
SWIDTH 545 0
DWIDTH 6 0
BBX 5 7 0 0
BITMAP
E0
90
88
88
88
90
E0
ENDCHAR
STARTCHAR E
ENCODING 69
SWIDTH 545 0
DWIDTH 6 0
BBX 5 7 0 0
BITMAP
F8
80
80
F0
80
80
F8
ENDCHAR
STARTCHAR F
ENCODING 70
SWIDTH 545 0
DWIDTH 6 0
BBX 5 7 0 0
BITMAP
F8
80
80
F0
80
80
80
ENDCHAR
STARTCHAR G
ENCODING 71
SWIDTH 545 0
DWIDTH 6 0
BBX 5 7 0 0
BITMAP
70
88
80
B8
88
88
70
ENDCHAR
STARTCHAR H
ENCODING 72
SWIDTH 545 0
DWIDTH 6 0
BBX 5 7 0 0
BITMAP
88
88
88
F8
88
88
88
ENDCHAR
STARTCHAR I
ENCODING 73
SWIDTH 545 0
DWIDTH 6 0
BBX 1 7 2 0
BITMAP
80
80
80
80
80
80
80
ENDCHAR
STARTCHAR J
ENCODING 74
SWIDTH 545 0
DWIDTH 6 0
BBX 5 7 0 0
BITMAP
38
10
10
10
10
90
60
ENDCHAR
STARTCHAR K
ENCODING 75
SWIDTH 545 0
DWIDTH 6 0
BBX 5 7 0 0
BITMAP
88
90
A0
C0
A0
90
88
ENDCHAR
STARTCHAR L
ENCODING 76
SWIDTH 545 0
DWIDTH 6 0
BBX 5 7 0 0
BITMAP
80
80
80
80
80
80
F8
ENDCHAR
STARTCHAR M
ENCODING 77
SWIDTH 545 0
DWIDTH 6 0
BBX 5 7 0 0
BITMAP
88
D8
A8
88
88
88
88
ENDCHAR
STARTCHAR N
ENCODING 78
SWIDTH 545 0
DWIDTH 6 0
BBX 5 7 0 0
BITMAP
88
88
C8
A8
98
88
88
ENDCHAR
STARTCHAR O
ENCODING 79
SWIDTH 545 0
DWIDTH 6 0
BBX 5 7 0 0
BITMAP
70
88
88
88
88
88
70
ENDCHAR
STARTCHAR P
ENCODING 80
SWIDTH 545 0
DWIDTH 6 0
BBX 5 7 0 0
BITMAP
F0
88
88
F0
80
80
80
ENDCHAR
STARTCHAR Q
ENCODING 81
SWIDTH 545 0
DWIDTH 6 0
BBX 5 7 0 0
BITMAP
70
88
88
88
A8
90
68
ENDCHAR
STARTCHAR R
ENCODING 82
SWIDTH 545 0
DWIDTH 6 0
BBX 5 7 0 0
BITMAP
F0
88
88
F0
A0
90
88
ENDCHAR
STARTCHAR S
ENCODING 83
SWIDTH 545 0
DWIDTH 6 0
BBX 5 7 0 0
BITMAP
78
80
80
70
08
08
F0
ENDCHAR
STARTCHAR T
ENCODING 84
SWIDTH 545 0
DWIDTH 6 0
BBX 5 7 0 0
BITMAP
F8
20
20
20
20
20
20
ENDCHAR
STARTCHAR U
ENCODING 85
SWIDTH 545 0
DWIDTH 6 0
BBX 5 7 0 0
BITMAP
88
88
88
88
88
88
70
ENDCHAR
STARTCHAR V
ENCODING 86
SWIDTH 545 0
DWIDTH 6 0
BBX 5 7 0 0
BITMAP
88
88
88
88
88
50
20
ENDCHAR
STARTCHAR W
ENCODING 87
SWIDTH 545 0
DWIDTH 6 0
BBX 5 7 0 0
BITMAP
88
88
88
88
88
A8
50
ENDCHAR
STARTCHAR X
ENCODING 88
SWIDTH 545 0
DWIDTH 6 0
BBX 5 7 0 0
BITMAP
88
88
50
20
50
88
88
ENDCHAR
STARTCHAR Y
ENCODING 89
SWIDTH 545 0
DWIDTH 6 0
BBX 5 7 0 0
BITMAP
88
88
88
50
20
20
20
ENDCHAR
STARTCHAR Z
ENCODING 90
SWIDTH 545 0
DWIDTH 6 0
BBX 5 7 0 0
BITMAP
F8
08
10
20
40
80
F8
ENDCHAR
STARTCHAR bracketleft
ENCODING 91
SWIDTH 545 0
DWIDTH 6 0
BBX 3 7 1 0
BITMAP
E0
80
80
80
80
80
E0
ENDCHAR
STARTCHAR backslash
ENCODING 92
SWIDTH 545 0
DWIDTH 6 0
BBX 5 5 0 1
BITMAP
80
40
20
10
08
ENDCHAR
STARTCHAR bracketright
ENCODING 93
SWIDTH 545 0
DWIDTH 6 0
BBX 3 7 1 0
BITMAP
E0
20
20
20
20
20
E0
ENDCHAR
STARTCHAR asciicircum
ENCODING 94
SWIDTH 545 0
DWIDTH 6 0
BBX 5 3 0 4
BITMAP
20
50
88
ENDCHAR
STARTCHAR underscore
ENCODING 95
SWIDTH 545 0
DWIDTH 6 0
BBX 5 1 0 0
BITMAP
F8
ENDCHAR
STARTCHAR grave
ENCODING 96
SWIDTH 545 0
DWIDTH 6 0
BBX 2 2 2 5
BITMAP
80
40
ENDCHAR
STARTCHAR a
ENCODING 97
SWIDTH 545 0
DWIDTH 6 0
BBX 5 5 0 0
BITMAP
70
08
78
88
78
ENDCHAR
STARTCHAR b
ENCODING 98
SWIDTH 545 0
DWIDTH 6 0
BBX 5 7 0 0
BITMAP
80
80
B0
C8
88
88
F0
ENDCHAR
STARTCHAR c
ENCODING 99
SWIDTH 545 0
DWIDTH 6 0
BBX 5 5 0 0
BITMAP
70
80
80
88
70
ENDCHAR
STARTCHAR d
ENCODING 100
SWIDTH 545 0
DWIDTH 6 0
BBX 5 7 0 0
BITMAP
08
08
68
98
88
88
78
ENDCHAR
STARTCHAR e
ENCODING 101
SWIDTH 545 0
DWIDTH 6 0
BBX 5 5 0 0
BITMAP
70
88
F8
80
70
ENDCHAR
STARTCHAR f
ENCODING 102
SWIDTH 545 0
DWIDTH 6 0
BBX 5 7 0 0
BITMAP
30
48
E0
40
40
40
40
ENDCHAR
STARTCHAR g
ENCODING 103
SWIDTH 545 0
DWIDTH 6 0
BBX 5 6 0 -1
BITMAP
70
88
88
78
08
70
ENDCHAR
STARTCHAR h
ENCODING 104
SWIDTH 545 0
DWIDTH 6 0
BBX 5 7 0 0
BITMAP
80
80
B0
C8
88
88
88
ENDCHAR
STARTCHAR i
ENCODING 105
SWIDTH 545 0
DWIDTH 6 0
BBX 1 7 2 0
BITMAP
80
00
80
80
80
80
80
ENDCHAR
STARTCHAR j
ENCODING 106
SWIDTH 545 0
DWIDTH 6 0
BBX 3 8 1 -1
BITMAP
20
00
20
20
20
20
A0
40
ENDCHAR
STARTCHAR k
ENCODING 107
SWIDTH 545 0
DWIDTH 6 0
BBX 4 7 0 0
BITMAP
80
80
90
A0
C0
A0
90
ENDCHAR
STARTCHAR l
ENCODING 108
SWIDTH 545 0
DWIDTH 6 0
BBX 3 7 1 0
BITMAP
C0
40
40
40
40
40
E0
ENDCHAR
STARTCHAR m
ENCODING 109
SWIDTH 545 0
DWIDTH 6 0
BBX 5 5 0 0
BITMAP
D0
A8
A8
A8
A8
ENDCHAR
STARTCHAR n
ENCODING 110
SWIDTH 545 0
DWIDTH 6 0
BBX 5 5 0 0
BITMAP
B0
C8
88
88
88
ENDCHAR
STARTCHAR o
ENCODING 111
SWIDTH 545 0
DWIDTH 6 0
BBX 5 5 0 0
BITMAP
70
88
88
88
70
ENDCHAR
STARTCHAR p
ENCODING 112
SWIDTH 545 0
DWIDTH 6 0
BBX 5 6 0 -1
BITMAP
F0
88
88
F0
80
80
ENDCHAR
STARTCHAR q
ENCODING 113
SWIDTH 545 0
DWIDTH 6 0
BBX 5 6 0 -1
BITMAP
78
88
88
78
08
08
ENDCHAR
STARTCHAR r
ENCODING 114
SWIDTH 545 0
DWIDTH 6 0
BBX 5 5 0 0
BITMAP
B0
C8
80
80
80
ENDCHAR
STARTCHAR s
ENCODING 115
SWIDTH 545 0
DWIDTH 6 0
BBX 5 5 0 0
BITMAP
70
80
70
08
F0
ENDCHAR
STARTCHAR t
ENCODING 116
SWIDTH 545 0
DWIDTH 6 0
BBX 5 7 0 0
BITMAP
40
40
E0
40
40
48
30
ENDCHAR
STARTCHAR u
ENCODING 117
SWIDTH 545 0
DWIDTH 6 0
BBX 5 5 0 0
BITMAP
88
88
88
98
68
ENDCHAR
STARTCHAR v
ENCODING 118
SWIDTH 545 0
DWIDTH 6 0
BBX 5 5 0 0
BITMAP
88
88
88
50
20
ENDCHAR
STARTCHAR w
ENCODING 119
SWIDTH 545 0
DWIDTH 6 0
BBX 5 5 0 0
BITMAP
88
88
A8
A8
50
ENDCHAR
STARTCHAR x
ENCODING 120
SWIDTH 545 0
DWIDTH 6 0
BBX 5 5 0 0
BITMAP
88
50
20
50
88
ENDCHAR
STARTCHAR y
ENCODING 121
SWIDTH 545 0
DWIDTH 6 0
BBX 5 6 0 -1
BITMAP
88
88
88
78
08
70
ENDCHAR
STARTCHAR z
ENCODING 122
SWIDTH 545 0
DWIDTH 6 0
BBX 5 5 0 0
BITMAP
F8
10
20
40
F8
ENDCHAR
STARTCHAR braceleft
ENCODING 123
SWIDTH 545 0
DWIDTH 6 0
BBX 3 7 1 0
BITMAP
20
40
40
80
40
40
20
ENDCHAR
STARTCHAR bar
ENCODING 124
SWIDTH 545 0
DWIDTH 6 0
BBX 1 7 2 0
BITMAP
80
80
80
80
80
80
80
ENDCHAR
STARTCHAR braceright
ENCODING 125
SWIDTH 545 0
DWIDTH 6 0
BBX 3 7 1 0
BITMAP
80
40
40
20
40
40
80
ENDCHAR
STARTCHAR asciitilde
ENCODING 126
SWIDTH 545 0
DWIDTH 6 0
BBX 5 2 0 3
BITMAP
68
90
ENDCHAR
STARTCHAR exclamdown
ENCODING 161
SWIDTH 545 0
DWIDTH 6 0
BBX 1 7 2 0
BITMAP
80
00
80
80
80
80
80
ENDCHAR
STARTCHAR cent
ENCODING 162
SWIDTH 545 0
DWIDTH 6 0
BBX 5 7 0 0
BITMAP
20
70
A8
A0
A8
70
20
ENDCHAR
STARTCHAR sterling
ENCODING 163
SWIDTH 545 0
DWIDTH 6 0
BBX 5 7 0 0
BITMAP
30
40
40
E0
40
50
A8
ENDCHAR
STARTCHAR currency
ENCODING 164
SWIDTH 545 0
DWIDTH 6 0
BBX 5 5 0 0
BITMAP
88
70
50
70
88
ENDCHAR
STARTCHAR yen
ENCODING 165
SWIDTH 545 0
DWIDTH 6 0
BBX 5 7 0 0
BITMAP
88
50
20
F8
20
F8
20
ENDCHAR
STARTCHAR brokenbar
ENCODING 166
SWIDTH 545 0
DWIDTH 6 0
BBX 1 7 2 0
BITMAP
80
80
80
00
80
80
80
ENDCHAR
STARTCHAR section
ENCODING 167
SWIDTH 545 0
DWIDTH 6 0
BBX 5 8 0 0
BITMAP
30
48
20
50
50
20
90
60
ENDCHAR
STARTCHAR dieresis
ENCODING 168
SWIDTH 545 0
DWIDTH 6 0
BBX 3 1 1 7
BITMAP
A0
ENDCHAR
STARTCHAR copyright
ENCODING 169
SWIDTH 545 0
DWIDTH 6 0
BBX 5 7 0 0
BITMAP
F8
88
B8
B8
B8
88
F8
ENDCHAR
STARTCHAR ordfeminine
ENCODING 170
SWIDTH 545 0
DWIDTH 6 0
BBX 5 7 0 1
BITMAP
70
08
78
88
78
00
F8
ENDCHAR
STARTCHAR guillemotleft
ENCODING 171
SWIDTH 545 0
DWIDTH 6 0
BBX 5 5 0 1
BITMAP
28
50
A0
50
28
ENDCHAR
STARTCHAR logicalnot
ENCODING 172
SWIDTH 545 0
DWIDTH 6 0
BBX 5 3 0 1
BITMAP
F8
08
08
ENDCHAR
STARTCHAR uni00AD
ENCODING 173
SWIDTH 545 0
DWIDTH 6 0
BBX 2 2 2 6
BITMAP
40
80
ENDCHAR
STARTCHAR registered
ENCODING 174
SWIDTH 545 0
DWIDTH 6 0
BBX 5 7 0 0
BITMAP
F8
88
A8
88
98
A8
F8
ENDCHAR
STARTCHAR macron
ENCODING 175
SWIDTH 545 0
DWIDTH 6 0
BBX 5 1 0 6
BITMAP
F8
ENDCHAR
STARTCHAR degree
ENCODING 176
SWIDTH 545 0
DWIDTH 6 0
BBX 4 4 0 3
BITMAP
60
90
90
60
ENDCHAR
STARTCHAR plusminus
ENCODING 177
SWIDTH 545 0
DWIDTH 6 0
BBX 5 7 0 0
BITMAP
20
20
F8
20
20
00
F8
ENDCHAR
STARTCHAR uni00B2
ENCODING 178
SWIDTH 545 0
DWIDTH 6 0
BBX 4 5 0 3
BITMAP
60
90
20
40
F0
ENDCHAR
STARTCHAR uni00B3
ENCODING 179
SWIDTH 545 0
DWIDTH 6 0
BBX 3 5 0 3
BITMAP
E0
20
E0
20
E0
ENDCHAR
STARTCHAR acute
ENCODING 180
SWIDTH 545 0
DWIDTH 6 0
BBX 2 2 2 6
BITMAP
40
80
ENDCHAR
STARTCHAR uni00B5
ENCODING 181
SWIDTH 545 0
DWIDTH 6 0
BBX 5 8 0 -1
BITMAP
88
88
88
88
98
E8
80
80
ENDCHAR
STARTCHAR paragraph
ENCODING 182
SWIDTH 545 0
DWIDTH 6 0
BBX 5 7 0 0
BITMAP
78
98
98
78
18
18
18
ENDCHAR
STARTCHAR periodcentered
ENCODING 183
SWIDTH 545 0
DWIDTH 6 0
BBX 2 2 2 2
BITMAP
C0
C0
ENDCHAR
STARTCHAR cedilla
ENCODING 184
SWIDTH 545 0
DWIDTH 6 0
BBX 2 2 2 -1
BITMAP
40
80
ENDCHAR
STARTCHAR uni00B9
ENCODING 185
SWIDTH 545 0
DWIDTH 6 0
BBX 3 5 0 3
BITMAP
40
C0
40
40
E0
ENDCHAR
STARTCHAR ordmasculine
ENCODING 186
SWIDTH 545 0
DWIDTH 6 0
BBX 5 7 0 1
BITMAP
70
88
88
88
70
00
F8
ENDCHAR
STARTCHAR guillemotright
ENCODING 187
SWIDTH 545 0
DWIDTH 6 0
BBX 5 5 0 1
BITMAP
A0
50
28
50
A0
ENDCHAR
STARTCHAR onequarter
ENCODING 188
SWIDTH 545 0
DWIDTH 6 0
BBX 5 7 0 0
BITMAP
88
90
A8
58
B8
08
08
ENDCHAR
STARTCHAR onehalf
ENCODING 189
SWIDTH 545 0
DWIDTH 6 0
BBX 5 7 0 0
BITMAP
88
90
B8
48
98
20
38
ENDCHAR
STARTCHAR threequarters
ENCODING 190
SWIDTH 545 0
DWIDTH 6 0
BBX 5 8 0 0
BITMAP
C0
40
C0
48
D8
38
08
08
ENDCHAR
STARTCHAR questiondown
ENCODING 191
SWIDTH 545 0
DWIDTH 6 0
BBX 5 7 0 0
BITMAP
20
00
20
40
80
88
70
ENDCHAR
STARTCHAR Agrave
ENCODING 192
SWIDTH 545 0
DWIDTH 6 0
BBX 5 8 0 0
BITMAP
40
20
00
70
88
F8
88
88
ENDCHAR
STARTCHAR Aacute
ENCODING 193
SWIDTH 545 0
DWIDTH 6 0
BBX 5 8 0 0
BITMAP
10
20
00
70
88
F8
88
88
ENDCHAR
STARTCHAR Acircumflex
ENCODING 194
SWIDTH 545 0
DWIDTH 6 0
BBX 5 8 0 0
BITMAP
20
50
00
70
88
F8
88
88
ENDCHAR
STARTCHAR Atilde
ENCODING 195
SWIDTH 545 0
DWIDTH 6 0
BBX 5 8 0 0
BITMAP
68
90
00
70
88
F8
88
88
ENDCHAR
STARTCHAR Adieresis
ENCODING 196
SWIDTH 545 0
DWIDTH 6 0
BBX 5 8 0 0
BITMAP
50
00
70
88
88
F8
88
88
ENDCHAR
STARTCHAR Aring
ENCODING 197
SWIDTH 545 0
DWIDTH 6 0
BBX 5 8 0 0
BITMAP
20
50
20
70
88
F8
88
88
ENDCHAR
STARTCHAR AE
ENCODING 198
SWIDTH 545 0
DWIDTH 6 0
BBX 5 7 0 0
BITMAP
38
60
A0
B8
E0
A0
B8
ENDCHAR
STARTCHAR Ccedilla
ENCODING 199
SWIDTH 545 0
DWIDTH 6 0
BBX 5 8 0 -1
BITMAP
70
88
80
80
88
70
20
60
ENDCHAR
STARTCHAR Egrave
ENCODING 200
SWIDTH 545 0
DWIDTH 6 0
BBX 5 8 0 0
BITMAP
40
20
00
F8
80
F0
80
F8
ENDCHAR
STARTCHAR Eacute
ENCODING 201
SWIDTH 545 0
DWIDTH 6 0
BBX 5 8 0 0
BITMAP
08
10
00
F8
80
F0
80
F8
ENDCHAR
STARTCHAR Ecircumflex
ENCODING 202
SWIDTH 545 0
DWIDTH 6 0
BBX 5 8 0 0
BITMAP
20
50
00
F8
80
F0
80
F8
ENDCHAR
STARTCHAR Edieresis
ENCODING 203
SWIDTH 545 0
DWIDTH 6 0
BBX 5 7 0 0
BITMAP
50
00
F8
80
F0
80
F8
ENDCHAR
STARTCHAR Igrave
ENCODING 204
SWIDTH 545 0
DWIDTH 6 0
BBX 3 8 1 0
BITMAP
80
40
00
E0
40
40
40
E0
ENDCHAR
STARTCHAR Iacute
ENCODING 205
SWIDTH 545 0
DWIDTH 6 0
BBX 3 8 1 0
BITMAP
20
40
00
E0
40
40
40
E0
ENDCHAR
STARTCHAR Icircumflex
ENCODING 206
SWIDTH 545 0
DWIDTH 6 0
BBX 3 8 1 0
BITMAP
40
A0
00
E0
40
40
40
E0
ENDCHAR
STARTCHAR Idieresis
ENCODING 207
SWIDTH 545 0
DWIDTH 6 0
BBX 3 7 1 0
BITMAP
A0
00
E0
40
40
40
E0
ENDCHAR
STARTCHAR Eth
ENCODING 208
SWIDTH 545 0
DWIDTH 6 0
BBX 5 7 0 0
BITMAP
70
48
48
E8
48
48
70
ENDCHAR
STARTCHAR Ntilde
ENCODING 209
SWIDTH 545 0
DWIDTH 6 0
BBX 5 8 0 0
BITMAP
68
90
00
88
C8
A8
98
88
ENDCHAR
STARTCHAR Ograve
ENCODING 210
SWIDTH 545 0
DWIDTH 6 0
BBX 5 8 0 0
BITMAP
40
20
70
88
88
88
88
70
ENDCHAR
STARTCHAR Oacute
ENCODING 211
SWIDTH 545 0
DWIDTH 6 0
BBX 5 8 0 0
BITMAP
10
20
70
88
88
88
88
70
ENDCHAR
STARTCHAR Ocircumflex
ENCODING 212
SWIDTH 545 0
DWIDTH 6 0
BBX 5 8 0 0
BITMAP
20
50
00
70
88
88
88
70
ENDCHAR
STARTCHAR Otilde
ENCODING 213
SWIDTH 545 0
DWIDTH 6 0
BBX 5 8 0 0
BITMAP
68
90
00
70
88
88
88
70
ENDCHAR
STARTCHAR Odieresis
ENCODING 214
SWIDTH 545 0
DWIDTH 6 0
BBX 5 8 0 0
BITMAP
50
00
70
88
88
88
88
70
ENDCHAR
STARTCHAR multiply
ENCODING 215
SWIDTH 545 0
DWIDTH 6 0
BBX 5 5 0 1
BITMAP
88
50
20
50
88
ENDCHAR
STARTCHAR Oslash
ENCODING 216
SWIDTH 545 0
DWIDTH 6 0
BBX 5 8 0 -1
BITMAP
10
70
A8
A8
A8
A8
70
40
ENDCHAR
STARTCHAR Ugrave
ENCODING 217
SWIDTH 545 0
DWIDTH 6 0
BBX 5 8 0 0
BITMAP
40
20
88
88
88
88
88
70
ENDCHAR
STARTCHAR Uacute
ENCODING 218
SWIDTH 545 0
DWIDTH 6 0
BBX 5 8 0 0
BITMAP
10
20
88
88
88
88
88
70
ENDCHAR
STARTCHAR Ucircumflex
ENCODING 219
SWIDTH 545 0
DWIDTH 6 0
BBX 5 8 0 0
BITMAP
20
50
00
88
88
88
88
70
ENDCHAR
STARTCHAR Udieresis
ENCODING 220
SWIDTH 545 0
DWIDTH 6 0
BBX 5 8 0 0
BITMAP
50
00
88
88
88
88
88
70
ENDCHAR
STARTCHAR Yacute
ENCODING 221
SWIDTH 545 0
DWIDTH 6 0
BBX 5 8 0 0
BITMAP
10
20
88
50
20
20
20
20
ENDCHAR
STARTCHAR Thorn
ENCODING 222
SWIDTH 545 0
DWIDTH 6 0
BBX 5 9 0 -1
BITMAP
C0
40
70
48
48
70
40
40
E0
ENDCHAR
STARTCHAR germandbls
ENCODING 223
SWIDTH 545 0
DWIDTH 6 0
BBX 4 8 1 -1
BITMAP
60
90
90
A0
90
90
E0
80
ENDCHAR
STARTCHAR agrave
ENCODING 224
SWIDTH 545 0
DWIDTH 6 0
BBX 5 8 0 0
BITMAP
40
20
00
70
08
78
88
78
ENDCHAR
STARTCHAR aacute
ENCODING 225
SWIDTH 545 0
DWIDTH 6 0
BBX 5 8 0 0
BITMAP
10
20
00
70
08
78
88
78
ENDCHAR
STARTCHAR acircumflex
ENCODING 226
SWIDTH 545 0
DWIDTH 6 0
BBX 5 8 0 0
BITMAP
20
50
00
70
08
78
88
78
ENDCHAR
STARTCHAR atilde
ENCODING 227
SWIDTH 545 0
DWIDTH 6 0
BBX 5 8 0 0
BITMAP
68
90
00
70
08
78
88
78
ENDCHAR
STARTCHAR adieresis
ENCODING 228
SWIDTH 545 0
DWIDTH 6 0
BBX 5 7 0 0
BITMAP
50
00
70
08
78
88
78
ENDCHAR
STARTCHAR aring
ENCODING 229
SWIDTH 545 0
DWIDTH 6 0
BBX 5 8 0 0
BITMAP
20
50
20
70
08
78
88
78
ENDCHAR
STARTCHAR ae
ENCODING 230
SWIDTH 545 0
DWIDTH 6 0
BBX 5 6 0 0
BITMAP
D0
28
78
A0
A8
50
ENDCHAR
STARTCHAR ccedilla
ENCODING 231
SWIDTH 545 0
DWIDTH 6 0
BBX 5 6 0 -1
BITMAP
70
80
88
70
20
60
ENDCHAR
STARTCHAR egrave
ENCODING 232
SWIDTH 545 0
DWIDTH 6 0
BBX 5 8 0 0
BITMAP
40
20
00
70
88
F8
80
70
ENDCHAR
STARTCHAR eacute
ENCODING 233
SWIDTH 545 0
DWIDTH 6 0
BBX 5 8 0 0
BITMAP
10
20
00
70
88
F8
80
70
ENDCHAR
STARTCHAR ecircumflex
ENCODING 234
SWIDTH 545 0
DWIDTH 6 0
BBX 5 8 0 0
BITMAP
20
50
00
70
88
F8
80
70
ENDCHAR
STARTCHAR edieresis
ENCODING 235
SWIDTH 545 0
DWIDTH 6 0
BBX 5 7 0 0
BITMAP
50
00
70
88
F8
80
70
ENDCHAR
STARTCHAR igrave
ENCODING 236
SWIDTH 545 0
DWIDTH 6 0
BBX 3 8 1 0
BITMAP
80
40
00
40
C0
40
40
E0
ENDCHAR
STARTCHAR iacute
ENCODING 237
SWIDTH 545 0
DWIDTH 6 0
BBX 3 8 1 0
BITMAP
20
40
00
40
C0
40
40
E0
ENDCHAR
STARTCHAR icircumflex
ENCODING 238
SWIDTH 545 0
DWIDTH 6 0
BBX 3 8 1 0
BITMAP
40
A0
00
40
C0
40
40
E0
ENDCHAR
STARTCHAR idieresis
ENCODING 239
SWIDTH 545 0
DWIDTH 6 0
BBX 3 7 1 0
BITMAP
A0
00
40
C0
40
40
E0
ENDCHAR
STARTCHAR eth
ENCODING 240
SWIDTH 545 0
DWIDTH 6 0
BBX 5 7 0 0
BITMAP
A0
40
A0
10
78
88
70
ENDCHAR
STARTCHAR ntilde
ENCODING 241
SWIDTH 545 0
DWIDTH 6 0
BBX 5 8 0 0
BITMAP
68
90
00
B0
C8
88
88
88
ENDCHAR
STARTCHAR ograve
ENCODING 242
SWIDTH 545 0
DWIDTH 6 0
BBX 5 8 0 0
BITMAP
40
20
00
70
88
88
88
70
ENDCHAR
STARTCHAR oacute
ENCODING 243
SWIDTH 545 0
DWIDTH 6 0
BBX 5 8 0 0
BITMAP
10
20
00
70
88
88
88
70
ENDCHAR
STARTCHAR ocircumflex
ENCODING 244
SWIDTH 545 0
DWIDTH 6 0
BBX 5 8 0 0
BITMAP
20
50
00
70
88
88
88
70
ENDCHAR
STARTCHAR otilde
ENCODING 245
SWIDTH 545 0
DWIDTH 6 0
BBX 5 8 0 0
BITMAP
68
90
00
70
88
88
88
70
ENDCHAR
STARTCHAR odieresis
ENCODING 246
SWIDTH 545 0
DWIDTH 6 0
BBX 5 7 0 0
BITMAP
50
00
70
88
88
88
70
ENDCHAR
STARTCHAR divide
ENCODING 247
SWIDTH 545 0
DWIDTH 6 0
BBX 5 5 0 1
BITMAP
20
00
F8
00
20
ENDCHAR
STARTCHAR oslash
ENCODING 248
SWIDTH 545 0
DWIDTH 6 0
BBX 5 7 0 -1
BITMAP
10
70
A8
A8
A8
70
40
ENDCHAR
STARTCHAR ugrave
ENCODING 249
SWIDTH 545 0
DWIDTH 6 0
BBX 5 8 0 0
BITMAP
40
20
00
88
88
88
98
68
ENDCHAR
STARTCHAR uacute
ENCODING 250
SWIDTH 545 0
DWIDTH 6 0
BBX 5 8 0 0
BITMAP
10
20
00
88
88
88
98
68
ENDCHAR
STARTCHAR ucircumflex
ENCODING 251
SWIDTH 545 0
DWIDTH 6 0
BBX 5 8 0 0
BITMAP
20
50
00
88
88
88
98
68
ENDCHAR
STARTCHAR udieresis
ENCODING 252
SWIDTH 545 0
DWIDTH 6 0
BBX 5 7 0 0
BITMAP
50
00
88
88
88
98
68
ENDCHAR
STARTCHAR yacute
ENCODING 253
SWIDTH 545 0
DWIDTH 6 0
BBX 5 9 0 -1
BITMAP
10
20
00
88
88
88
F8
08
70
ENDCHAR
STARTCHAR thorn
ENCODING 254
SWIDTH 545 0
DWIDTH 6 0
BBX 4 7 1 -1
BITMAP
C0
40
60
50
60
40
E0
ENDCHAR
STARTCHAR ydieresis
ENCODING 255
SWIDTH 545 0
DWIDTH 6 0
BBX 5 8 0 -1
BITMAP
50
00
88
88
88
78
08
70
ENDCHAR
STARTCHAR quotedblbase
ENCODING 900
SWIDTH 545 0
DWIDTH 6 0
BBX 2 2 1 6
BITMAP
40
80
ENDCHAR
STARTCHAR ellipsis
ENCODING 901
SWIDTH 545 0
DWIDTH 6 0
BBX 3 3 1 5
BITMAP
20
40
A0
ENDCHAR
STARTCHAR dagger
ENCODING 902
SWIDTH 545 0
DWIDTH 6 0
BBX 5 8 0 0
BITMAP
40
A0
50
50
88
F8
88
88
ENDCHAR
STARTCHAR daggerdbl
ENCODING 903
SWIDTH 545 0
DWIDTH 6 0
BBX 2 2 1 2
BITMAP
C0
C0
ENDCHAR
STARTCHAR circumflex
ENCODING 904
SWIDTH 545 0
DWIDTH 6 0
BBX 5 8 0 0
BITMAP
40
80
F8
80
F0
80
80
F8
ENDCHAR
STARTCHAR perthousand
ENCODING 905
SWIDTH 545 0
DWIDTH 6 0
BBX 5 8 0 0
BITMAP
40
80
88
88
F8
88
88
88
ENDCHAR
STARTCHAR Scaron
ENCODING 906
SWIDTH 545 0
DWIDTH 6 0
BBX 4 8 0 0
BITMAP
40
80
70
20
20
20
20
70
ENDCHAR
STARTCHAR guilsinglleft
ENCODING 907
SWIDTH 545 0
DWIDTH 6 0
BBX 1 1 5 -2
BITMAP
00
ENDCHAR
STARTCHAR OE
ENCODING 908
SWIDTH 545 0
DWIDTH 6 0
BBX 5 8 0 0
BITMAP
40
80
70
88
88
88
88
70
ENDCHAR
STARTCHAR NameMe.141
ENCODING 909
SWIDTH 545 0
DWIDTH 6 0
BBX 1 1 5 -2
BITMAP
00
ENDCHAR
STARTCHAR Zcaron
ENCODING 910
SWIDTH 545 0
DWIDTH 6 0
BBX 5 8 0 0
BITMAP
40
80
08
88
70
20
20
20
ENDCHAR
STARTCHAR NameMe.143
ENCODING 911
SWIDTH 545 0
DWIDTH 6 0
BBX 5 8 0 0
BITMAP
40
80
70
88
88
88
50
D8
ENDCHAR
STARTCHAR NameMe.144
ENCODING 912
SWIDTH 545 0
DWIDTH 6 0
BBX 3 8 1 0
BITMAP
20
40
A0
00
40
40
40
20
ENDCHAR
STARTCHAR quoteleft
ENCODING 913
SWIDTH 545 0
DWIDTH 6 0
BBX 5 7 0 0
BITMAP
20
50
88
88
F8
88
88
ENDCHAR
STARTCHAR quoteright
ENCODING 914
SWIDTH 545 0
DWIDTH 6 0
BBX 5 7 0 0
BITMAP
F0
48
48
70
48
48
F0
ENDCHAR
STARTCHAR quotedblleft
ENCODING 915
SWIDTH 545 0
DWIDTH 6 0
BBX 5 7 0 0
BITMAP
F8
80
80
80
80
80
80
ENDCHAR
STARTCHAR quotedblright
ENCODING 916
SWIDTH 545 0
DWIDTH 6 0
BBX 5 6 0 0
BITMAP
20
50
50
88
88
F8
ENDCHAR
STARTCHAR bullet
ENCODING 917
SWIDTH 545 0
DWIDTH 6 0
BBX 5 7 0 0
BITMAP
F8
80
80
F0
80
80
F8
ENDCHAR
STARTCHAR endash
ENCODING 918
SWIDTH 545 0
DWIDTH 6 0
BBX 5 7 0 0
BITMAP
F8
08
10
20
40
80
F8
ENDCHAR
STARTCHAR emdash
ENCODING 919
SWIDTH 545 0
DWIDTH 6 0
BBX 5 7 0 0
BITMAP
88
88
88
F8
88
88
88
ENDCHAR
STARTCHAR tilde
ENCODING 920
SWIDTH 545 0
DWIDTH 6 0
BBX 5 7 0 0
BITMAP
70
88
88
A8
88
88
70
ENDCHAR
STARTCHAR trademark
ENCODING 921
SWIDTH 545 0
DWIDTH 6 0
BBX 3 7 1 0
BITMAP
E0
40
40
40
40
40
E0
ENDCHAR
STARTCHAR scaron
ENCODING 922
SWIDTH 545 0
DWIDTH 6 0
BBX 5 7 0 0
BITMAP
88
90
A0
C0
A0
90
88
ENDCHAR
STARTCHAR guilsinglright
ENCODING 923
SWIDTH 545 0
DWIDTH 6 0
BBX 5 7 0 0
BITMAP
20
50
88
88
88
88
88
ENDCHAR
STARTCHAR oe
ENCODING 924
SWIDTH 545 0
DWIDTH 6 0
BBX 5 7 0 0
BITMAP
88
D8
A8
A8
88
88
88
ENDCHAR
STARTCHAR NameMe.157
ENCODING 925
SWIDTH 545 0
DWIDTH 6 0
BBX 5 7 0 0
BITMAP
88
C8
C8
A8
98
98
88
ENDCHAR
STARTCHAR zcaron
ENCODING 926
SWIDTH 545 0
DWIDTH 6 0
BBX 5 7 0 0
BITMAP
F8
00
00
70
00
00
F8
ENDCHAR
STARTCHAR Ydieresis
ENCODING 927
SWIDTH 545 0
DWIDTH 6 0
BBX 5 7 0 0
BITMAP
70
88
88
88
88
88
70
ENDCHAR
STARTCHAR uni00A0
ENCODING 928
SWIDTH 545 0
DWIDTH 6 0
BBX 5 7 0 0
BITMAP
F8
50
50
50
50
50
50
ENDCHAR
STARTCHAR exclamdown
ENCODING 929
SWIDTH 545 0
DWIDTH 6 0
BBX 5 7 0 0
BITMAP
F0
88
88
F0
80
80
80
ENDCHAR
STARTCHAR cent
ENCODING 930
SWIDTH 545 0
DWIDTH 6 0
BBX 1 1 5 -2
BITMAP
00
ENDCHAR
STARTCHAR sterling
ENCODING 931
SWIDTH 545 0
DWIDTH 6 0
BBX 5 7 0 0
BITMAP
F8
80
40
20
40
80
F8
ENDCHAR
STARTCHAR currency
ENCODING 932
SWIDTH 545 0
DWIDTH 6 0
BBX 5 7 0 0
BITMAP
F8
20
20
20
20
20
20
ENDCHAR
STARTCHAR yen
ENCODING 933
SWIDTH 545 0
DWIDTH 6 0
BBX 5 7 0 0
BITMAP
88
88
50
20
20
20
20
ENDCHAR
STARTCHAR brokenbar
ENCODING 934
SWIDTH 545 0
DWIDTH 6 0
BBX 5 7 0 0
BITMAP
70
20
70
A8
70
20
70
ENDCHAR
STARTCHAR section
ENCODING 935
SWIDTH 545 0
DWIDTH 6 0
BBX 5 7 0 0
BITMAP
88
88
50
20
50
88
88
ENDCHAR
STARTCHAR dieresis
ENCODING 936
SWIDTH 545 0
DWIDTH 6 0
BBX 5 7 0 0
BITMAP
A8
A8
A8
A8
70
20
20
ENDCHAR
STARTCHAR copyright
ENCODING 937
SWIDTH 545 0
DWIDTH 6 0
BBX 5 6 0 0
BITMAP
70
88
88
50
50
D8
ENDCHAR
STARTCHAR ordfeminine
ENCODING 938
SWIDTH 545 0
DWIDTH 6 0
BBX 3 8 1 0
BITMAP
A0
00
E0
40
40
40
40
E0
ENDCHAR
STARTCHAR guillemotleft
ENCODING 939
SWIDTH 545 0
DWIDTH 6 0
BBX 5 8 0 0
BITMAP
50
00
88
88
88
50
20
20
ENDCHAR
STARTCHAR logicalnot
ENCODING 940
SWIDTH 545 0
DWIDTH 6 0
BBX 5 8 0 0
BITMAP
20
40
08
68
98
90
90
68
ENDCHAR
STARTCHAR uni00AD
ENCODING 941
SWIDTH 545 0
DWIDTH 6 0
BBX 5 8 0 0
BITMAP
20
40
00
70
88
E0
88
70
ENDCHAR
STARTCHAR registered
ENCODING 942
SWIDTH 545 0
DWIDTH 6 0
BBX 5 10 0 -2
BITMAP
20
40
00
70
88
88
88
88
08
08
ENDCHAR
STARTCHAR macron
ENCODING 943
SWIDTH 545 0
DWIDTH 6 0
BBX 2 8 1 0
BITMAP
40
80
00
80
80
80
80
40
ENDCHAR
STARTCHAR degree
ENCODING 944
SWIDTH 545 0
DWIDTH 6 0
BBX 5 8 0 0
BITMAP
10
20
50
00
88
88
88
70
ENDCHAR
STARTCHAR plusminus
ENCODING 945
SWIDTH 545 0
DWIDTH 6 0
BBX 5 6 0 0
BITMAP
08
68
98
90
90
68
ENDCHAR
STARTCHAR uni00B2
ENCODING 946
SWIDTH 545 0
DWIDTH 6 0
BBX 4 7 0 -2
BITMAP
60
90
F0
90
E0
80
80
ENDCHAR
STARTCHAR uni00B3
ENCODING 947
SWIDTH 545 0
DWIDTH 6 0
BBX 5 6 0 -1
BITMAP
88
48
50
20
20
40
ENDCHAR
STARTCHAR acute
ENCODING 948
SWIDTH 545 0
DWIDTH 6 0
BBX 5 6 0 0
BITMAP
30
40
70
88
88
70
ENDCHAR
STARTCHAR uni00B5
ENCODING 949
SWIDTH 545 0
DWIDTH 6 0
BBX 5 5 0 0
BITMAP
70
88
E0
88
70
ENDCHAR
STARTCHAR paragraph
ENCODING 950
SWIDTH 545 0
DWIDTH 6 0
BBX 5 9 0 -2
BITMAP
80
70
40
80
80
80
70
08
70
ENDCHAR
STARTCHAR periodcentered
ENCODING 951
SWIDTH 545 0
DWIDTH 6 0
BBX 5 7 0 -2
BITMAP
B8
C8
88
88
88
08
08
ENDCHAR
STARTCHAR cedilla
ENCODING 952
SWIDTH 545 0
DWIDTH 6 0
BBX 5 5 0 0
BITMAP
70
88
F8
88
70
ENDCHAR
STARTCHAR uni00B9
ENCODING 953
SWIDTH 545 0
DWIDTH 6 0
BBX 3 5 1 0
BITMAP
80
80
80
80
60
ENDCHAR
STARTCHAR ordmasculine
ENCODING 954
SWIDTH 545 0
DWIDTH 6 0
BBX 4 5 0 0
BITMAP
90
A0
C0
A0
90
ENDCHAR
STARTCHAR guillemotright
ENCODING 955
SWIDTH 545 0
DWIDTH 6 0
BBX 5 6 0 0
BITMAP
40
20
20
50
50
88
ENDCHAR
STARTCHAR onequarter
ENCODING 956
SWIDTH 545 0
DWIDTH 6 0
BBX 5 7 0 -2
BITMAP
88
88
88
D8
A8
80
80
ENDCHAR
STARTCHAR onehalf
ENCODING 957
SWIDTH 545 0
DWIDTH 6 0
BBX 5 5 0 0
BITMAP
88
88
50
60
20
ENDCHAR
STARTCHAR threequarters
ENCODING 958
SWIDTH 545 0
DWIDTH 6 0
BBX 5 10 0 -2
BITMAP
80
E0
80
70
20
40
80
70
08
70
ENDCHAR
STARTCHAR questiondown
ENCODING 959
SWIDTH 545 0
DWIDTH 6 0
BBX 5 5 0 0
BITMAP
70
88
88
88
70
ENDCHAR
STARTCHAR Agrave
ENCODING 960
SWIDTH 545 0
DWIDTH 6 0
BBX 5 5 0 0
BITMAP
F8
50
50
50
50
ENDCHAR
STARTCHAR Aacute
ENCODING 961
SWIDTH 545 0
DWIDTH 6 0
BBX 5 7 0 -2
BITMAP
70
88
88
C8
B0
80
80
ENDCHAR
STARTCHAR Acircumflex
ENCODING 962
SWIDTH 545 0
DWIDTH 6 0
BBX 5 7 0 -2
BITMAP
30
40
80
40
30
08
70
ENDCHAR
STARTCHAR Atilde
ENCODING 963
SWIDTH 545 0
DWIDTH 6 0
BBX 5 5 0 0
BITMAP
68
90
90
90
60
ENDCHAR
STARTCHAR Adieresis
ENCODING 964
SWIDTH 545 0
DWIDTH 6 0
BBX 4 5 0 0
BITMAP
F0
40
40
40
30
ENDCHAR
STARTCHAR Aring
ENCODING 965
SWIDTH 545 0
DWIDTH 6 0
BBX 5 5 0 0
BITMAP
88
88
90
90
E0
ENDCHAR
STARTCHAR AE
ENCODING 966
SWIDTH 545 0
DWIDTH 6 0
BBX 5 8 0 -2
BITMAP
30
A8
A8
A8
A8
70
20
20
ENDCHAR
STARTCHAR Ccedilla
ENCODING 967
SWIDTH 545 0
DWIDTH 6 0
BBX 5 6 0 -1
BITMAP
88
50
20
20
50
88
ENDCHAR
STARTCHAR Egrave
ENCODING 968
SWIDTH 545 0
DWIDTH 6 0
BBX 5 7 0 -2
BITMAP
A8
A8
A8
A8
70
20
20
ENDCHAR
STARTCHAR Eacute
ENCODING 969
SWIDTH 545 0
DWIDTH 6 0
BBX 5 5 0 0
BITMAP
50
88
88
A8
70
ENDCHAR
STARTCHAR Ecircumflex
ENCODING 970
SWIDTH 545 0
DWIDTH 6 0
BBX 4 7 0 0
BITMAP
A0
00
40
40
40
40
30
ENDCHAR
STARTCHAR Edieresis
ENCODING 971
SWIDTH 545 0
DWIDTH 6 0
BBX 5 7 0 0
BITMAP
50
00
88
88
90
90
E0
ENDCHAR
STARTCHAR Igrave
ENCODING 972
SWIDTH 545 0
DWIDTH 6 0
BBX 4 8 0 0
BITMAP
20
40
00
60
90
90
90
60
ENDCHAR
STARTCHAR Iacute
ENCODING 973
SWIDTH 545 0
DWIDTH 6 0
BBX 5 8 0 0
BITMAP
20
40
00
88
88
90
90
60
ENDCHAR
STARTCHAR Icircumflex
ENCODING 974
SWIDTH 545 0
DWIDTH 6 0
BBX 5 8 0 0
BITMAP
20
40
00
50
88
88
A8
70
ENDCHAR
STARTCHAR Idieresis
ENCODING 975
SWIDTH 545 0
DWIDTH 6 0
BBX 5 7 0 -1
BITMAP
90
A0
C0
A0
90
88
10
ENDCHAR
STARTCHAR Eth
ENCODING 976
SWIDTH 545 0
DWIDTH 6 0
BBX 5 8 0 0
BITMAP
60
90
A0
80
F0
88
88
70
ENDCHAR
STARTCHAR Ntilde
ENCODING 977
SWIDTH 545 0
DWIDTH 6 0
BBX 5 7 0 0
BITMAP
70
50
38
90
90
90
60
ENDCHAR
STARTCHAR Ograve
ENCODING 978
SWIDTH 545 0
DWIDTH 6 0
BBX 5 6 0 0
BITMAP
98
50
20
20
20
20
ENDCHAR
STARTCHAR Oacute
ENCODING 979
SWIDTH 545 0
DWIDTH 6 0
BBX 5 8 0 0
BITMAP
40
80
98
50
20
20
20
20
ENDCHAR
STARTCHAR Ocircumflex
ENCODING 980
SWIDTH 545 0
DWIDTH 6 0
BBX 5 8 0 0
BITMAP
50
00
98
50
20
20
20
20
ENDCHAR
STARTCHAR Otilde
ENCODING 981
SWIDTH 545 0
DWIDTH 6 0
BBX 5 7 0 -1
BITMAP
30
A8
A8
A8
A8
70
20
ENDCHAR
STARTCHAR Odieresis
ENCODING 982
SWIDTH 545 0
DWIDTH 6 0
BBX 5 5 0 0
BITMAP
F8
50
50
50
58
ENDCHAR
STARTCHAR multiply
ENCODING 983
SWIDTH 545 0
DWIDTH 6 0
BBX 5 6 0 -1
BITMAP
88
50
70
50
88
10
ENDCHAR
STARTCHAR Oslash
ENCODING 984
SWIDTH 545 0
DWIDTH 6 0
BBX 5 7 0 -1
BITMAP
70
88
88
88
70
20
70
ENDCHAR
STARTCHAR Ugrave
ENCODING 985
SWIDTH 545 0
DWIDTH 6 0
BBX 5 6 0 -1
BITMAP
70
88
88
70
20
70
ENDCHAR
STARTCHAR Uacute
ENCODING 986
SWIDTH 545 0
DWIDTH 6 0
BBX 5 6 0 0
BITMAP
70
88
80
70
20
70
ENDCHAR
STARTCHAR Ucircumflex
ENCODING 987
SWIDTH 545 0
DWIDTH 6 0
BBX 5 7 0 -2
BITMAP
08
70
80
80
70
10
60
ENDCHAR
STARTCHAR Udieresis
ENCODING 988
SWIDTH 545 0
DWIDTH 6 0
BBX 5 6 0 0
BITMAP
F8
80
80
F0
80
80
ENDCHAR
STARTCHAR Yacute
ENCODING 989
SWIDTH 545 0
DWIDTH 6 0
BBX 4 5 0 0
BITMAP
F0
80
E0
80
80
ENDCHAR
STARTCHAR Thorn
ENCODING 990
SWIDTH 545 0
DWIDTH 6 0
BBX 5 6 0 0
BITMAP
F8
00
00
70
00
F8
ENDCHAR
STARTCHAR germandbls
ENCODING 991
SWIDTH 545 0
DWIDTH 6 0
BBX 4 5 0 0
BITMAP
40
80
F0
10
20
ENDCHAR
STARTCHAR agrave
ENCODING 992
SWIDTH 545 0
DWIDTH 6 0
BBX 5 7 0 0
BITMAP
E0
50
28
28
08
08
10
ENDCHAR
STARTCHAR aacute
ENCODING 993
SWIDTH 545 0
DWIDTH 6 0
BBX 5 7 0 0
BITMAP
C0
20
50
28
08
08
08
ENDCHAR
STARTCHAR acircumflex
ENCODING 994
SWIDTH 545 0
DWIDTH 6 0
BBX 5 8 0 -2
BITMAP
A8
A8
A8
A8
A8
58
08
70
ENDCHAR
STARTCHAR atilde
ENCODING 995
SWIDTH 545 0
DWIDTH 6 0
BBX 5 7 0 -2
BITMAP
A8
A8
A8
A8
58
08
70
ENDCHAR
STARTCHAR adieresis
ENCODING 996
SWIDTH 545 0
DWIDTH 6 0
BBX 5 6 0 0
BITMAP
68
88
88
78
08
08
ENDCHAR
STARTCHAR aring
ENCODING 997
SWIDTH 545 0
DWIDTH 6 0
BBX 5 6 0 -1
BITMAP
68
88
88
78
08
08
ENDCHAR
STARTCHAR ae
ENCODING 998
SWIDTH 545 0
DWIDTH 6 0
BBX 4 8 0 -2
BITMAP
80
E0
90
90
90
90
20
C0
ENDCHAR
STARTCHAR ccedilla
ENCODING 999
SWIDTH 545 0
DWIDTH 6 0
BBX 5 5 0 0
BITMAP
68
90
70
10
E0
ENDCHAR
STARTCHAR egrave
ENCODING 1000
SWIDTH 545 0
DWIDTH 6 0
BBX 5 6 0 0
BITMAP
60
90
10
60
88
70
ENDCHAR
STARTCHAR eacute
ENCODING 1001
SWIDTH 545 0
DWIDTH 6 0
BBX 4 6 0 0
BITMAP
60
90
10
60
80
70
ENDCHAR
STARTCHAR ecircumflex
ENCODING 1002
SWIDTH 545 0
DWIDTH 6 0
BBX 5 6 0 0
BITMAP
88
50
20
50
88
F8
ENDCHAR
STARTCHAR edieresis
ENCODING 1003
SWIDTH 545 0
DWIDTH 6 0
BBX 5 5 0 0
BITMAP
88
50
20
50
70
ENDCHAR
STARTCHAR igrave
ENCODING 1004
SWIDTH 545 0
DWIDTH 6 0
BBX 5 6 0 0
BITMAP
78
80
F0
88
88
70
ENDCHAR
STARTCHAR iacute
ENCODING 1005
SWIDTH 545 0
DWIDTH 6 0
BBX 4 5 0 0
BITMAP
F0
80
E0
90
60
ENDCHAR
STARTCHAR icircumflex
ENCODING 1006
SWIDTH 545 0
DWIDTH 6 0
BBX 3 6 1 0
BITMAP
40
E0
40
40
40
40
ENDCHAR
STARTCHAR idieresis
ENCODING 1007
SWIDTH 545 0
DWIDTH 6 0
BBX 3 6 1 -1
BITMAP
40
E0
40
40
40
80
ENDCHAR
STARTCHAR eth
ENCODING 1008
SWIDTH 545 0
DWIDTH 6 0
BBX 5 5 0 0
BITMAP
88
50
70
50
88
ENDCHAR
STARTCHAR ntilde
ENCODING 1009
SWIDTH 545 0
DWIDTH 6 0
BBX 5 7 0 -2
BITMAP
70
88
88
88
F0
80
70
ENDCHAR
STARTCHAR ograve
ENCODING 1010
SWIDTH 545 0
DWIDTH 6 0
BBX 4 5 0 0
BITMAP
70
80
80
80
70
ENDCHAR
STARTCHAR oacute
ENCODING 1011
SWIDTH 545 0
DWIDTH 6 0
BBX 2 8 1 -1
BITMAP
40
00
C0
40
40
40
40
80
ENDCHAR
STARTCHAR ocircumflex
ENCODING 1012
SWIDTH 545 0
DWIDTH 6 0
BBX 5 7 0 0
BITMAP
70
88
88
F8
88
88
70
ENDCHAR
STARTCHAR otilde
ENCODING 1013
SWIDTH 545 0
DWIDTH 6 0
BBX 4 5 0 0
BITMAP
70
80
E0
80
70
ENDCHAR
STARTCHAR odieresis
ENCODING 1014
SWIDTH 545 0
DWIDTH 6 0
BBX 4 5 0 0
BITMAP
E0
10
70
10
E0
ENDCHAR
STARTCHAR divide
ENCODING 1015
SWIDTH 545 0
DWIDTH 6 0
BBX 5 7 0 0
BITMAP
80
F0
88
88
88
F0
80
ENDCHAR
STARTCHAR oslash
ENCODING 1016
SWIDTH 545 0
DWIDTH 6 0
BBX 4 7 0 -1
BITMAP
80
E0
90
90
90
E0
80
ENDCHAR
STARTCHAR ugrave
ENCODING 1017
SWIDTH 545 0
DWIDTH 6 0
BBX 5 6 0 0
BITMAP
70
88
80
80
88
70
ENDCHAR
STARTCHAR uacute
ENCODING 1018
SWIDTH 545 0
DWIDTH 6 0
BBX 5 6 0 0
BITMAP
88
D8
A8
88
88
88
ENDCHAR
STARTCHAR ucircumflex
ENCODING 1019
SWIDTH 545 0
DWIDTH 6 0
BBX 5 7 0 -2
BITMAP
88
D8
A8
88
88
80
80
ENDCHAR
STARTCHAR udieresis
ENCODING 1020
SWIDTH 545 0
DWIDTH 6 0
BBX 5 8 0 -2
BITMAP
70
88
88
88
70
40
E0
40
ENDCHAR
STARTCHAR yacute
ENCODING 1021
SWIDTH 545 0
DWIDTH 6 0
BBX 5 6 0 0
BITMAP
70
88
08
08
88
70
ENDCHAR
STARTCHAR thorn
ENCODING 1022
SWIDTH 545 0
DWIDTH 6 0
BBX 5 6 0 0
BITMAP
70
88
A0
80
88
70
ENDCHAR
STARTCHAR ydieresis
ENCODING 1023
SWIDTH 545 0
DWIDTH 6 0
BBX 5 6 0 0
BITMAP
70
88
28
08
88
70
ENDCHAR
STARTCHAR uni00A0
ENCODING 1024
SWIDTH 545 0
DWIDTH 6 0
BBX 5 8 0 0
BITMAP
40
F8
80
80
F0
80
80
F8
ENDCHAR
STARTCHAR exclamdown
ENCODING 1025
SWIDTH 545 0
DWIDTH 6 0
BBX 5 8 0 0
BITMAP
50
F8
80
80
F0
80
80
F8
ENDCHAR
STARTCHAR cent
ENCODING 1026
SWIDTH 545 0
DWIDTH 6 0
BBX 5 7 0 0
BITMAP
E0
40
40
70
48
48
70
ENDCHAR
STARTCHAR sterling
ENCODING 1027
SWIDTH 545 0
DWIDTH 6 0
BBX 5 8 0 0
BITMAP
10
20
F8
88
80
80
80
80
ENDCHAR
STARTCHAR currency
ENCODING 1028
SWIDTH 545 0
DWIDTH 6 0
BBX 5 7 0 0
BITMAP
30
48
80
E0
80
48
30
ENDCHAR
STARTCHAR yen
ENCODING 1029
SWIDTH 545 0
DWIDTH 6 0
BBX 5 7 0 0
BITMAP
70
88
80
70
08
88
70
ENDCHAR
STARTCHAR brokenbar
ENCODING 1030
SWIDTH 545 0
DWIDTH 6 0
BBX 3 7 1 0
BITMAP
E0
40
40
40
40
40
E0
ENDCHAR
STARTCHAR section
ENCODING 1031
SWIDTH 545 0
DWIDTH 6 0
BBX 3 8 1 0
BITMAP
A0
00
E0
40
40
40
40
E0
ENDCHAR
STARTCHAR dieresis
ENCODING 1032
SWIDTH 545 0
DWIDTH 6 0
BBX 5 7 0 0
BITMAP
38
10
10
10
10
90
60
ENDCHAR
STARTCHAR copyright
ENCODING 1033
SWIDTH 545 0
DWIDTH 6 0
BBX 5 7 0 0
BITMAP
A0
A0
A0
B8
A8
A8
B8
ENDCHAR
STARTCHAR ordfeminine
ENCODING 1034
SWIDTH 545 0
DWIDTH 6 0
BBX 5 7 0 0
BITMAP
A0
A0
A0
F8
A8
A8
B8
ENDCHAR
STARTCHAR guillemotleft
ENCODING 1035
SWIDTH 545 0
DWIDTH 6 0
BBX 4 7 0 0
BITMAP
E0
40
70
50
50
50
50
ENDCHAR
STARTCHAR logicalnot
ENCODING 1036
SWIDTH 545 0
DWIDTH 6 0
BBX 5 8 0 0
BITMAP
10
20
88
90
A0
E0
90
88
ENDCHAR
STARTCHAR uni00AD
ENCODING 1037
SWIDTH 545 0
DWIDTH 6 0
BBX 5 8 0 0
BITMAP
40
20
88
98
A8
C8
88
88
ENDCHAR
STARTCHAR registered
ENCODING 1038
SWIDTH 545 0
DWIDTH 6 0
BBX 5 9 0 -1
BITMAP
50
20
88
88
88
50
20
20
20
ENDCHAR
STARTCHAR macron
ENCODING 1039
SWIDTH 545 0
DWIDTH 6 0
BBX 5 8 0 -1
BITMAP
88
88
88
88
88
88
F8
20
ENDCHAR
STARTCHAR degree
ENCODING 1040
SWIDTH 545 0
DWIDTH 6 0
BBX 5 7 0 0
BITMAP
70
88
88
F8
88
88
88
ENDCHAR
STARTCHAR plusminus
ENCODING 1041
SWIDTH 545 0
DWIDTH 6 0
BBX 5 7 0 0
BITMAP
F8
80
80
F0
88
88
F0
ENDCHAR
STARTCHAR uni00B2
ENCODING 1042
SWIDTH 545 0
DWIDTH 6 0
BBX 5 7 0 0
BITMAP
F0
88
88
F0
88
88
F0
ENDCHAR
STARTCHAR uni00B3
ENCODING 1043
SWIDTH 545 0
DWIDTH 6 0
BBX 5 7 0 0
BITMAP
F8
88
80
80
80
80
80
ENDCHAR
STARTCHAR acute
ENCODING 1044
SWIDTH 545 0
DWIDTH 6 0
BBX 5 8 0 -1
BITMAP
78
28
28
28
48
88
F8
88
ENDCHAR
STARTCHAR uni00B5
ENCODING 1045
SWIDTH 545 0
DWIDTH 6 0
BBX 5 7 0 0
BITMAP
F8
80
80
F0
80
80
F8
ENDCHAR
STARTCHAR paragraph
ENCODING 1046
SWIDTH 545 0
DWIDTH 6 0
BBX 5 7 0 0
BITMAP
A8
A8
A8
70
A8
A8
A8
ENDCHAR
STARTCHAR periodcentered
ENCODING 1047
SWIDTH 545 0
DWIDTH 6 0
BBX 5 7 0 0
BITMAP
F0
08
08
70
08
08
F0
ENDCHAR
STARTCHAR cedilla
ENCODING 1048
SWIDTH 545 0
DWIDTH 6 0
BBX 5 7 0 0
BITMAP
88
88
98
A8
C8
88
88
ENDCHAR
STARTCHAR uni00B9
ENCODING 1049
SWIDTH 545 0
DWIDTH 6 0
BBX 5 8 0 0
BITMAP
50
20
88
98
A8
A8
C8
88
ENDCHAR
STARTCHAR ordmasculine
ENCODING 1050
SWIDTH 545 0
DWIDTH 6 0
BBX 5 7 0 0
BITMAP
88
90
A0
C0
A0
90
88
ENDCHAR
STARTCHAR guillemotright
ENCODING 1051
SWIDTH 545 0
DWIDTH 6 0
BBX 5 7 0 0
BITMAP
78
28
28
28
28
A8
48
ENDCHAR
STARTCHAR onequarter
ENCODING 1052
SWIDTH 545 0
DWIDTH 6 0
BBX 5 7 0 0
BITMAP
88
D8
A8
88
88
88
88
ENDCHAR
STARTCHAR onehalf
ENCODING 1053
SWIDTH 545 0
DWIDTH 6 0
BBX 5 7 0 0
BITMAP
88
88
88
F8
88
88
88
ENDCHAR
STARTCHAR threequarters
ENCODING 1054
SWIDTH 545 0
DWIDTH 6 0
BBX 5 7 0 0
BITMAP
70
88
88
88
88
88
70
ENDCHAR
STARTCHAR questiondown
ENCODING 1055
SWIDTH 545 0
DWIDTH 6 0
BBX 5 7 0 0
BITMAP
F8
88
88
88
88
88
88
ENDCHAR
STARTCHAR Agrave
ENCODING 1056
SWIDTH 545 0
DWIDTH 6 0
BBX 5 7 0 0
BITMAP
F0
88
88
F0
80
80
80
ENDCHAR
STARTCHAR Aacute
ENCODING 1057
SWIDTH 545 0
DWIDTH 6 0
BBX 5 7 0 0
BITMAP
70
88
80
80
80
88
70
ENDCHAR
STARTCHAR Acircumflex
ENCODING 1058
SWIDTH 545 0
DWIDTH 6 0
BBX 5 7 0 0
BITMAP
F8
20
20
20
20
20
20
ENDCHAR
STARTCHAR Atilde
ENCODING 1059
SWIDTH 545 0
DWIDTH 6 0
BBX 5 7 0 0
BITMAP
88
88
88
50
20
40
80
ENDCHAR
STARTCHAR Adieresis
ENCODING 1060
SWIDTH 545 0
DWIDTH 6 0
BBX 5 7 0 0
BITMAP
20
70
A8
A8
A8
70
20
ENDCHAR
STARTCHAR Aring
ENCODING 1061
SWIDTH 545 0
DWIDTH 6 0
BBX 5 7 0 0
BITMAP
88
88
50
20
50
88
88
ENDCHAR
STARTCHAR AE
ENCODING 1062
SWIDTH 545 0
DWIDTH 6 0
BBX 5 8 0 -1
BITMAP
88
88
88
88
88
88
F8
08
ENDCHAR
STARTCHAR Ccedilla
ENCODING 1063
SWIDTH 545 0
DWIDTH 6 0
BBX 5 7 0 0
BITMAP
88
88
88
98
68
08
08
ENDCHAR
STARTCHAR Egrave
ENCODING 1064
SWIDTH 545 0
DWIDTH 6 0
BBX 5 7 0 0
BITMAP
A8
A8
A8
A8
A8
A8
F8
ENDCHAR
STARTCHAR Eacute
ENCODING 1065
SWIDTH 545 0
DWIDTH 6 0
BBX 5 8 0 -1
BITMAP
A8
A8
A8
A8
A8
A8
F8
08
ENDCHAR
STARTCHAR Ecircumflex
ENCODING 1066
SWIDTH 545 0
DWIDTH 6 0
BBX 5 7 0 0
BITMAP
C0
40
40
70
48
48
70
ENDCHAR
STARTCHAR Edieresis
ENCODING 1067
SWIDTH 545 0
DWIDTH 6 0
BBX 5 7 0 0
BITMAP
88
88
88
C8
A8
A8
C8
ENDCHAR
STARTCHAR Igrave
ENCODING 1068
SWIDTH 545 0
DWIDTH 6 0
BBX 5 7 0 0
BITMAP
80
80
80
F0
88
88
F0
ENDCHAR
STARTCHAR Iacute
ENCODING 1069
SWIDTH 545 0
DWIDTH 6 0
BBX 5 7 0 0
BITMAP
70
88
08
38
08
88
70
ENDCHAR
STARTCHAR Icircumflex
ENCODING 1070
SWIDTH 545 0
DWIDTH 6 0
BBX 5 7 0 0
BITMAP
90
A8
A8
E8
A8
A8
90
ENDCHAR
STARTCHAR Idieresis
ENCODING 1071
SWIDTH 545 0
DWIDTH 6 0
BBX 5 7 0 0
BITMAP
78
88
88
78
28
48
88
ENDCHAR
STARTCHAR Eth
ENCODING 1072
SWIDTH 545 0
DWIDTH 6 0
BBX 5 5 0 0
BITMAP
70
08
78
88
78
ENDCHAR
STARTCHAR Ntilde
ENCODING 1073
SWIDTH 545 0
DWIDTH 6 0
BBX 5 7 0 0
BITMAP
18
60
80
F0
88
88
70
ENDCHAR
STARTCHAR Ograve
ENCODING 1074
SWIDTH 545 0
DWIDTH 6 0
BBX 4 5 0 0
BITMAP
E0
90
E0
90
E0
ENDCHAR
STARTCHAR Oacute
ENCODING 1075
SWIDTH 545 0
DWIDTH 6 0
BBX 5 5 0 0
BITMAP
F8
88
80
80
80
ENDCHAR
STARTCHAR Ocircumflex
ENCODING 1076
SWIDTH 545 0
DWIDTH 6 0
BBX 5 6 0 -1
BITMAP
78
28
48
88
F8
88
ENDCHAR
STARTCHAR Otilde
ENCODING 1077
SWIDTH 545 0
DWIDTH 6 0
BBX 5 5 0 0
BITMAP
70
88
F8
80
70
ENDCHAR
STARTCHAR Odieresis
ENCODING 1078
SWIDTH 545 0
DWIDTH 6 0
BBX 5 5 0 0
BITMAP
A8
A8
70
A8
A8
ENDCHAR
STARTCHAR multiply
ENCODING 1079
SWIDTH 545 0
DWIDTH 6 0
BBX 5 5 0 0
BITMAP
F0
08
30
08
F0
ENDCHAR
STARTCHAR Oslash
ENCODING 1080
SWIDTH 545 0
DWIDTH 6 0
BBX 5 5 0 0
BITMAP
88
98
A8
C8
88
ENDCHAR
STARTCHAR Ugrave
ENCODING 1081
SWIDTH 545 0
DWIDTH 6 0
BBX 5 7 0 0
BITMAP
50
20
88
98
A8
C8
88
ENDCHAR
STARTCHAR Uacute
ENCODING 1082
SWIDTH 545 0
DWIDTH 6 0
BBX 4 5 0 0
BITMAP
90
A0
C0
A0
90
ENDCHAR
STARTCHAR Ucircumflex
ENCODING 1083
SWIDTH 545 0
DWIDTH 6 0
BBX 5 5 0 0
BITMAP
F8
28
28
A8
48
ENDCHAR
STARTCHAR Udieresis
ENCODING 1084
SWIDTH 545 0
DWIDTH 6 0
BBX 5 5 0 0
BITMAP
88
D8
A8
88
88
ENDCHAR
STARTCHAR Yacute
ENCODING 1085
SWIDTH 545 0
DWIDTH 6 0
BBX 5 5 0 0
BITMAP
88
88
F8
88
88
ENDCHAR
STARTCHAR Thorn
ENCODING 1086
SWIDTH 545 0
DWIDTH 6 0
BBX 5 5 0 0
BITMAP
70
88
88
88
70
ENDCHAR
STARTCHAR germandbls
ENCODING 1087
SWIDTH 545 0
DWIDTH 6 0
BBX 5 5 0 0
BITMAP
F8
88
88
88
88
ENDCHAR
STARTCHAR agrave
ENCODING 1088
SWIDTH 545 0
DWIDTH 6 0
BBX 5 6 0 -1
BITMAP
F0
88
88
F0
80
80
ENDCHAR
STARTCHAR aacute
ENCODING 1089
SWIDTH 545 0
DWIDTH 6 0
BBX 5 5 0 0
BITMAP
70
80
80
88
70
ENDCHAR
STARTCHAR acircumflex
ENCODING 1090
SWIDTH 545 0
DWIDTH 6 0
BBX 5 5 0 0
BITMAP
F8
20
20
20
20
ENDCHAR
STARTCHAR atilde
ENCODING 1091
SWIDTH 545 0
DWIDTH 6 0
BBX 5 6 0 -1
BITMAP
88
88
88
78
08
70
ENDCHAR
STARTCHAR adieresis
ENCODING 1092
SWIDTH 545 0
DWIDTH 6 0
BBX 5 6 0 0
BITMAP
20
70
A8
A8
70
20
ENDCHAR
STARTCHAR aring
ENCODING 1093
SWIDTH 545 0
DWIDTH 6 0
BBX 5 5 0 0
BITMAP
88
50
20
50
88
ENDCHAR
STARTCHAR ae
ENCODING 1094
SWIDTH 545 0
DWIDTH 6 0
BBX 5 6 0 -1
BITMAP
88
88
88
88
F8
08
ENDCHAR
STARTCHAR ccedilla
ENCODING 1095
SWIDTH 545 0
DWIDTH 6 0
BBX 5 5 0 0
BITMAP
88
88
F8
08
08
ENDCHAR
STARTCHAR egrave
ENCODING 1096
SWIDTH 545 0
DWIDTH 6 0
BBX 5 5 0 0
BITMAP
A8
A8
A8
A8
F8
ENDCHAR
STARTCHAR eacute
ENCODING 1097
SWIDTH 545 0
DWIDTH 6 0
BBX 5 6 0 -1
BITMAP
A8
A8
A8
A8
F8
08
ENDCHAR
STARTCHAR ecircumflex
ENCODING 1098
SWIDTH 545 0
DWIDTH 6 0
BBX 5 5 0 0
BITMAP
C0
40
70
48
70
ENDCHAR
STARTCHAR edieresis
ENCODING 1099
SWIDTH 545 0
DWIDTH 6 0
BBX 5 5 0 0
BITMAP
88
88
C8
A8
C8
ENDCHAR
STARTCHAR igrave
ENCODING 1100
SWIDTH 545 0
DWIDTH 6 0
BBX 3 5 1 0
BITMAP
80
80
C0
A0
C0
ENDCHAR
STARTCHAR iacute
ENCODING 1101
SWIDTH 545 0
DWIDTH 6 0
BBX 5 5 0 0
BITMAP
70
88
38
88
70
ENDCHAR
STARTCHAR icircumflex
ENCODING 1102
SWIDTH 545 0
DWIDTH 6 0
BBX 5 5 0 0
BITMAP
90
A8
E8
A8
90
ENDCHAR
STARTCHAR idieresis
ENCODING 1103
SWIDTH 545 0
DWIDTH 6 0
BBX 5 5 0 0
BITMAP
78
88
78
28
48
ENDCHAR
STARTCHAR eth
ENCODING 1104
SWIDTH 545 0
DWIDTH 6 0
BBX 5 8 0 0
BITMAP
40
20
00
70
88
F8
80
70
ENDCHAR
STARTCHAR ntilde
ENCODING 1105
SWIDTH 545 0
DWIDTH 6 0
BBX 5 7 0 0
BITMAP
50
00
70
88
F8
80
70
ENDCHAR
STARTCHAR ograve
ENCODING 1106
SWIDTH 545 0
DWIDTH 6 0
BBX 5 9 0 -1
BITMAP
40
E0
40
40
78
48
48
48
10
ENDCHAR
STARTCHAR oacute
ENCODING 1107
SWIDTH 545 0
DWIDTH 6 0
BBX 5 8 0 0
BITMAP
10
20
00
F8
88
80
80
80
ENDCHAR
STARTCHAR ocircumflex
ENCODING 1108
SWIDTH 545 0
DWIDTH 6 0
BBX 5 5 0 0
BITMAP
70
88
60
88
70
ENDCHAR
STARTCHAR otilde
ENCODING 1109
SWIDTH 545 0
DWIDTH 6 0
BBX 5 5 0 0
BITMAP
70
80
70
08
F0
ENDCHAR
STARTCHAR odieresis
ENCODING 1110
SWIDTH 545 0
DWIDTH 6 0
BBX 1 7 2 0
BITMAP
80
00
80
80
80
80
80
ENDCHAR
STARTCHAR divide
ENCODING 1111
SWIDTH 545 0
DWIDTH 6 0
BBX 3 7 1 0
BITMAP
A0
00
40
40
40
40
40
ENDCHAR
STARTCHAR oslash
ENCODING 1112
SWIDTH 545 0
DWIDTH 6 0
BBX 3 8 1 -1
BITMAP
20
00
20
20
20
20
A0
40
ENDCHAR
STARTCHAR ugrave
ENCODING 1113
SWIDTH 545 0
DWIDTH 6 0
BBX 5 5 0 0
BITMAP
A0
A0
B8
A8
B8
ENDCHAR
STARTCHAR uacute
ENCODING 1114
SWIDTH 545 0
DWIDTH 6 0
BBX 5 5 0 0
BITMAP
A0
A0
F8
A8
B8
ENDCHAR
STARTCHAR ucircumflex
ENCODING 1115
SWIDTH 545 0
DWIDTH 6 0
BBX 5 6 0 0
BITMAP
40
E0
40
78
48
48
ENDCHAR
STARTCHAR udieresis
ENCODING 1116
SWIDTH 545 0
DWIDTH 6 0
BBX 4 8 0 0
BITMAP
10
20
00
90
A0
C0
A0
90
ENDCHAR
STARTCHAR yacute
ENCODING 1117
SWIDTH 545 0
DWIDTH 6 0
BBX 5 8 0 0
BITMAP
40
20
00
88
98
A8
C8
88
ENDCHAR
STARTCHAR thorn
ENCODING 1118
SWIDTH 545 0
DWIDTH 6 0
BBX 5 9 0 -1
BITMAP
50
20
00
88
88
88
78
08
70
ENDCHAR
STARTCHAR ydieresis
ENCODING 1119
SWIDTH 545 0
DWIDTH 6 0
BBX 5 6 0 -1
BITMAP
88
88
88
88
F8
20
ENDCHAR
STARTCHAR uni00A0
ENCODING 12448
SWIDTH 545 0
DWIDTH 6 0
BBX 5 3 0 1
BITMAP
F8
00
F8
ENDCHAR
STARTCHAR exclamdown
ENCODING 12449
SWIDTH 545 0
DWIDTH 6 0
BBX 4 4 0 0
BITMAP
F0
10
60
40
ENDCHAR
STARTCHAR cent
ENCODING 12450
SWIDTH 545 0
DWIDTH 6 0
BBX 5 6 0 0
BITMAP
F8
08
28
30
20
40
ENDCHAR
STARTCHAR sterling
ENCODING 12451
SWIDTH 545 0
DWIDTH 6 0
BBX 3 4 1 0
BITMAP
20
40
C0
40
ENDCHAR
STARTCHAR currency
ENCODING 12452
SWIDTH 545 0
DWIDTH 6 0
BBX 4 6 0 0
BITMAP
10
20
60
A0
20
20
ENDCHAR
STARTCHAR yen
ENCODING 12453
SWIDTH 545 0
DWIDTH 6 0
BBX 4 4 0 0
BITMAP
20
F0
90
20
ENDCHAR
STARTCHAR brokenbar
ENCODING 12454
SWIDTH 545 0
DWIDTH 6 0
BBX 5 6 0 0
BITMAP
20
F8
88
08
10
20
ENDCHAR
STARTCHAR section
ENCODING 12455
SWIDTH 545 0
DWIDTH 6 0
BBX 3 4 1 0
BITMAP
E0
40
40
E0
ENDCHAR
STARTCHAR dieresis
ENCODING 12456
SWIDTH 545 0
DWIDTH 6 0
BBX 5 5 0 0
BITMAP
F8
20
20
20
F8
ENDCHAR
STARTCHAR copyright
ENCODING 12457
SWIDTH 545 0
DWIDTH 6 0
BBX 4 4 0 0
BITMAP
20
F0
60
A0
ENDCHAR
STARTCHAR ordfeminine
ENCODING 12458
SWIDTH 545 0
DWIDTH 6 0
BBX 5 6 0 0
BITMAP
10
F8
30
50
90
10
ENDCHAR
STARTCHAR guillemotleft
ENCODING 12459
SWIDTH 545 0
DWIDTH 6 0
BBX 5 6 0 0
BITMAP
40
F8
48
48
48
90
ENDCHAR
STARTCHAR logicalnot
ENCODING 12460
SWIDTH 545 0
DWIDTH 6 0
BBX 5 8 0 0
BITMAP
28
00
40
F8
48
48
48
90
ENDCHAR
STARTCHAR uni00AD
ENCODING 12461
SWIDTH 545 0
DWIDTH 6 0
BBX 5 6 0 0
BITMAP
20
F8
20
F8
20
20
ENDCHAR
STARTCHAR registered
ENCODING 12462
SWIDTH 545 0
DWIDTH 6 0
BBX 5 8 0 0
BITMAP
28
00
20
F8
20
F8
20
20
ENDCHAR
STARTCHAR macron
ENCODING 12463
SWIDTH 545 0
DWIDTH 6 0
BBX 4 5 0 0
BITMAP
70
90
10
20
C0
ENDCHAR
STARTCHAR degree
ENCODING 12464
SWIDTH 545 0
DWIDTH 6 0
BBX 5 7 0 0
BITMAP
28
00
70
90
10
20
C0
ENDCHAR
STARTCHAR plusminus
ENCODING 12465
SWIDTH 545 0
DWIDTH 6 0
BBX 5 6 0 0
BITMAP
40
78
90
10
10
20
ENDCHAR
STARTCHAR uni00B2
ENCODING 12466
SWIDTH 545 0
DWIDTH 6 0
BBX 5 8 0 0
BITMAP
28
00
40
78
90
10
10
20
ENDCHAR
STARTCHAR uni00B3
ENCODING 12467
SWIDTH 545 0
DWIDTH 6 0
BBX 5 5 0 0
BITMAP
F8
08
08
08
F8
ENDCHAR
STARTCHAR acute
ENCODING 12468
SWIDTH 545 0
DWIDTH 6 0
BBX 5 7 0 0
BITMAP
28
00
F8
08
08
08
F8
ENDCHAR
STARTCHAR uni00B5
ENCODING 12469
SWIDTH 545 0
DWIDTH 6 0
BBX 5 6 0 0
BITMAP
50
F8
50
10
20
40
ENDCHAR
STARTCHAR paragraph
ENCODING 12470
SWIDTH 545 0
DWIDTH 6 0
BBX 5 8 0 0
BITMAP
28
00
50
F8
50
10
20
40
ENDCHAR
STARTCHAR periodcentered
ENCODING 12471
SWIDTH 545 0
DWIDTH 6 0
BBX 5 5 0 0
BITMAP
C0
08
C8
10
E0
ENDCHAR
STARTCHAR cedilla
ENCODING 12472
SWIDTH 545 0
DWIDTH 6 0
BBX 5 7 0 0
BITMAP
28
00
C0
08
C8
10
E0
ENDCHAR
STARTCHAR uni00B9
ENCODING 12473
SWIDTH 545 0
DWIDTH 6 0
BBX 5 5 0 0
BITMAP
F8
10
20
50
88
ENDCHAR
STARTCHAR ordmasculine
ENCODING 12474
SWIDTH 545 0
DWIDTH 6 0
BBX 5 7 0 0
BITMAP
28
00
F8
10
20
50
88
ENDCHAR
STARTCHAR guillemotright
ENCODING 12475
SWIDTH 545 0
DWIDTH 6 0
BBX 5 6 0 0
BITMAP
40
F8
48
50
40
38
ENDCHAR
STARTCHAR onequarter
ENCODING 12476
SWIDTH 545 0
DWIDTH 6 0
BBX 5 8 0 0
BITMAP
28
00
40
F8
48
50
40
38
ENDCHAR
STARTCHAR onehalf
ENCODING 12477
SWIDTH 545 0
DWIDTH 6 0
BBX 5 5 0 0
BITMAP
88
88
48
10
60
ENDCHAR
STARTCHAR threequarters
ENCODING 12478
SWIDTH 545 0
DWIDTH 6 0
BBX 5 7 0 0
BITMAP
28
00
88
88
48
10
60
ENDCHAR
STARTCHAR questiondown
ENCODING 12479
SWIDTH 545 0
DWIDTH 6 0
BBX 5 5 0 0
BITMAP
78
48
A8
10
60
ENDCHAR
STARTCHAR Agrave
ENCODING 12480
SWIDTH 545 0
DWIDTH 6 0
BBX 5 7 0 0
BITMAP
28
00
78
48
A8
10
60
ENDCHAR
STARTCHAR Aacute
ENCODING 12481
SWIDTH 545 0
DWIDTH 6 0
BBX 5 6 0 0
BITMAP
10
E0
20
F8
20
40
ENDCHAR
STARTCHAR Acircumflex
ENCODING 12482
SWIDTH 545 0
DWIDTH 6 0
BBX 5 8 0 0
BITMAP
28
00
10
E0
20
F8
20
40
ENDCHAR
STARTCHAR Atilde
ENCODING 12483
SWIDTH 545 0
DWIDTH 6 0
BBX 5 4 0 0
BITMAP
A8
A8
08
30
ENDCHAR
STARTCHAR Adieresis
ENCODING 12484
SWIDTH 545 0
DWIDTH 6 0
BBX 5 5 0 0
BITMAP
A8
A8
08
10
20
ENDCHAR
STARTCHAR Aring
ENCODING 12485
SWIDTH 545 0
DWIDTH 6 0
BBX 5 7 0 0
BITMAP
28
00
A8
A8
08
10
20
ENDCHAR
STARTCHAR AE
ENCODING 12486
SWIDTH 545 0
DWIDTH 6 0
BBX 5 6 0 0
BITMAP
70
00
F8
20
20
40
ENDCHAR
STARTCHAR Ccedilla
ENCODING 12487
SWIDTH 545 0
DWIDTH 6 0
BBX 5 8 0 0
BITMAP
28
00
70
00
F8
20
20
40
ENDCHAR
STARTCHAR Egrave
ENCODING 12488
SWIDTH 545 0
DWIDTH 6 0
BBX 3 6 1 0
BITMAP
80
80
C0
A0
80
80
ENDCHAR
STARTCHAR Eacute
ENCODING 12489
SWIDTH 545 0
DWIDTH 6 0
BBX 4 8 1 0
BITMAP
50
00
80
80
C0
A0
80
80
ENDCHAR
STARTCHAR Ecircumflex
ENCODING 12490
SWIDTH 545 0
DWIDTH 6 0
BBX 5 6 0 0
BITMAP
20
F8
20
20
40
80
ENDCHAR
STARTCHAR Edieresis
ENCODING 12491
SWIDTH 545 0
DWIDTH 6 0
BBX 5 5 0 0
BITMAP
70
00
00
00
F8
ENDCHAR
STARTCHAR Igrave
ENCODING 12492
SWIDTH 545 0
DWIDTH 6 0
BBX 5 5 0 0
BITMAP
F8
08
50
20
D0
ENDCHAR
STARTCHAR Iacute
ENCODING 12493
SWIDTH 545 0
DWIDTH 6 0
BBX 5 6 0 0
BITMAP
20
F8
10
20
70
A8
ENDCHAR
STARTCHAR Icircumflex
ENCODING 12494
SWIDTH 545 0
DWIDTH 6 0
BBX 3 6 1 0
BITMAP
20
20
20
20
40
80
ENDCHAR
STARTCHAR Idieresis
ENCODING 12495
SWIDTH 545 0
DWIDTH 6 0
BBX 5 5 0 0
BITMAP
10
88
88
88
88
ENDCHAR
STARTCHAR Eth
ENCODING 12496
SWIDTH 545 0
DWIDTH 6 0
BBX 5 7 0 0
BITMAP
28
00
10
88
88
88
88
ENDCHAR
STARTCHAR Ntilde
ENCODING 12497
SWIDTH 545 0
DWIDTH 6 0
BBX 5 8 0 0
BITMAP
18
18
00
10
88
88
88
88
ENDCHAR
STARTCHAR Ograve
ENCODING 12498
SWIDTH 545 0
DWIDTH 6 0
BBX 5 6 0 0
BITMAP
80
80
F8
80
80
78
ENDCHAR
STARTCHAR Oacute
ENCODING 12499
SWIDTH 545 0
DWIDTH 6 0
BBX 5 7 0 0
BITMAP
28
80
80
F8
80
80
78
ENDCHAR
STARTCHAR Ocircumflex
ENCODING 12500
SWIDTH 545 0
DWIDTH 6 0
BBX 5 7 0 0
BITMAP
18
98
80
F8
80
80
78
ENDCHAR
STARTCHAR Otilde
ENCODING 12501
SWIDTH 545 0
DWIDTH 6 0
BBX 5 5 0 0
BITMAP
F8
08
08
10
60
ENDCHAR
STARTCHAR Odieresis
ENCODING 12502
SWIDTH 545 0
DWIDTH 6 0
BBX 5 7 0 0
BITMAP
28
00
F8
08
08
10
60
ENDCHAR
STARTCHAR multiply
ENCODING 12503
SWIDTH 545 0
DWIDTH 6 0
BBX 5 8 0 0
BITMAP
18
18
00
F8
08
08
10
60
ENDCHAR
STARTCHAR Oslash
ENCODING 12504
SWIDTH 545 0
DWIDTH 6 0
BBX 5 4 0 1
BITMAP
40
A0
10
08
ENDCHAR
STARTCHAR Ugrave
ENCODING 12505
SWIDTH 545 0
DWIDTH 6 0
BBX 5 6 0 1
BITMAP
28
00
40
A0
10
08
ENDCHAR
STARTCHAR Uacute
ENCODING 12506
SWIDTH 545 0
DWIDTH 6 0
BBX 5 6 0 1
BITMAP
18
18
40
A0
10
08
ENDCHAR
STARTCHAR Ucircumflex
ENCODING 12507
SWIDTH 545 0
DWIDTH 6 0
BBX 5 6 0 0
BITMAP
20
F8
20
A8
A8
20
ENDCHAR
STARTCHAR Udieresis
ENCODING 12508
SWIDTH 545 0
DWIDTH 6 0
BBX 5 8 0 0
BITMAP
28
00
20
F8
20
A8
A8
20
ENDCHAR
STARTCHAR Yacute
ENCODING 12509
SWIDTH 545 0
DWIDTH 6 0
BBX 5 8 0 0
BITMAP
18
18
20
F8
20
A8
A8
20
ENDCHAR
STARTCHAR Thorn
ENCODING 12510
SWIDTH 545 0
DWIDTH 6 0
BBX 5 5 0 0
BITMAP
F8
08
50
20
10
ENDCHAR
STARTCHAR germandbls
ENCODING 12511
SWIDTH 545 0
DWIDTH 6 0
BBX 4 5 1 0
BITMAP
E0
00
E0
00
F0
ENDCHAR
STARTCHAR agrave
ENCODING 12512
SWIDTH 545 0
DWIDTH 6 0
BBX 5 5 0 0
BITMAP
20
40
88
F8
08
ENDCHAR
STARTCHAR aacute
ENCODING 12513
SWIDTH 545 0
DWIDTH 6 0
BBX 5 5 0 0
BITMAP
08
28
10
28
C0
ENDCHAR
STARTCHAR acircumflex
ENCODING 12514
SWIDTH 545 0
DWIDTH 6 0
BBX 5 5 0 0
BITMAP
F8
40
F8
40
38
ENDCHAR
STARTCHAR atilde
ENCODING 12515
SWIDTH 545 0
DWIDTH 6 0
BBX 5 4 0 0
BITMAP
40
F8
50
40
ENDCHAR
STARTCHAR adieresis
ENCODING 12516
SWIDTH 545 0
DWIDTH 6 0
BBX 5 6 0 0
BITMAP
40
F8
48
50
40
40
ENDCHAR
STARTCHAR aring
ENCODING 12517
SWIDTH 545 0
DWIDTH 6 0
BBX 4 4 0 0
BITMAP
60
20
20
F0
ENDCHAR
STARTCHAR ae
ENCODING 12518
SWIDTH 545 0
DWIDTH 6 0
BBX 5 5 0 0
BITMAP
70
10
10
10
F8
ENDCHAR
STARTCHAR ccedilla
ENCODING 12519
SWIDTH 545 0
DWIDTH 6 0
BBX 4 5 0 0
BITMAP
F0
10
F0
10
F0
ENDCHAR
STARTCHAR egrave
ENCODING 12520
SWIDTH 545 0
DWIDTH 6 0
BBX 5 5 0 0
BITMAP
F8
08
F8
08
F8
ENDCHAR
STARTCHAR eacute
ENCODING 12521
SWIDTH 545 0
DWIDTH 6 0
BBX 5 6 0 0
BITMAP
70
00
F8
08
10
20
ENDCHAR
STARTCHAR ecircumflex
ENCODING 12522
SWIDTH 545 0
DWIDTH 6 0
BBX 4 6 0 0
BITMAP
90
90
90
90
10
20
ENDCHAR
STARTCHAR edieresis
ENCODING 12523
SWIDTH 545 0
DWIDTH 6 0
BBX 5 5 0 0
BITMAP
20
A0
A8
A8
B0
ENDCHAR
STARTCHAR igrave
ENCODING 12524
SWIDTH 545 0
DWIDTH 6 0
BBX 4 5 0 0
BITMAP
80
80
90
A0
C0
ENDCHAR
STARTCHAR iacute
ENCODING 12525
SWIDTH 545 0
DWIDTH 6 0
BBX 5 5 0 0
BITMAP
F8
88
88
88
F8
ENDCHAR
STARTCHAR icircumflex
ENCODING 12526
SWIDTH 545 0
DWIDTH 6 0
BBX 4 4 0 0
BITMAP
F0
90
10
20
ENDCHAR
STARTCHAR idieresis
ENCODING 12527
SWIDTH 545 0
DWIDTH 6 0
BBX 5 5 0 0
BITMAP
F8
88
08
10
20
ENDCHAR
STARTCHAR eth
ENCODING 12528
SWIDTH 545 0
DWIDTH 6 0
BBX 5 6 0 0
BITMAP
10
F8
50
50
F8
10
ENDCHAR
STARTCHAR ntilde
ENCODING 12529
SWIDTH 545 0
DWIDTH 6 0
BBX 5 5 0 0
BITMAP
F8
08
30
20
F8
ENDCHAR
STARTCHAR ograve
ENCODING 12530
SWIDTH 545 0
DWIDTH 6 0
BBX 5 5 0 0
BITMAP
F8
08
F8
08
30
ENDCHAR
STARTCHAR oacute
ENCODING 12531
SWIDTH 545 0
DWIDTH 6 0
BBX 5 5 0 0
BITMAP
C0
08
08
10
E0
ENDCHAR
STARTCHAR ocircumflex
ENCODING 12532
SWIDTH 545 0
DWIDTH 6 0
BBX 5 8 0 0
BITMAP
28
00
20
F8
88
08
10
20
ENDCHAR
STARTCHAR otilde
ENCODING 12533
SWIDTH 545 0
DWIDTH 6 0
BBX 4 4 0 0
BITMAP
40
F0
50
A0
ENDCHAR
STARTCHAR odieresis
ENCODING 12534
SWIDTH 545 0
DWIDTH 6 0
BBX 4 4 0 0
BITMAP
40
F0
20
40
ENDCHAR
STARTCHAR divide
ENCODING 12535
SWIDTH 545 0
DWIDTH 6 0
BBX 5 7 0 0
BITMAP
28
00
F8
88
08
10
60
ENDCHAR
STARTCHAR oslash
ENCODING 12536
SWIDTH 545 0
DWIDTH 6 0
BBX 5 8 0 0
BITMAP
28
00
10
F8
50
50
F8
10
ENDCHAR
STARTCHAR ugrave
ENCODING 12537
SWIDTH 545 0
DWIDTH 6 0
BBX 5 7 0 0
BITMAP
28
00
F8
08
30
20
F8
ENDCHAR
STARTCHAR uacute
ENCODING 12538
SWIDTH 545 0
DWIDTH 6 0
BBX 5 7 0 0
BITMAP
28
00
F8
08
F8
08
30
ENDCHAR
STARTCHAR ucircumflex
ENCODING 12539
SWIDTH 545 0
DWIDTH 6 0
BBX 2 2 2 2
BITMAP
C0
C0
ENDCHAR
STARTCHAR udieresis
ENCODING 12540
SWIDTH 545 0
DWIDTH 6 0
BBX 5 1 0 2
BITMAP
F8
ENDCHAR
STARTCHAR yacute
ENCODING 12541
SWIDTH 545 0
DWIDTH 6 0
BBX 5 4 0 1
BITMAP
80
60
10
08
ENDCHAR
STARTCHAR thorn
ENCODING 12542
SWIDTH 545 0
DWIDTH 6 0
BBX 5 5 0 1
BITMAP
28
80
60
10
08
ENDCHAR
STARTCHAR ydieresis
ENCODING 12543
SWIDTH 545 0
DWIDTH 6 0
BBX 5 6 0 0
BITMAP
F8
08
08
08
08
08
ENDCHAR
ENDFONT
